<?xml version="1.0" encoding="utf-8"?>
<!-- Generator: Adobe Illustrator 27.0.1, SVG Export Plug-In . SVG Version: 6.00 Build 0)  -->
<svg version="1.1" id="Layer_1" xmlns="http://www.w3.org/2000/svg" xmlns:xlink="http://www.w3.org/1999/xlink" x="0px" y="0px"
	 width="50px" height="46px" viewBox="0 0 50 46" style="enable-background:new 0 0 50 46;" xml:space="preserve">
<style type="text/css">
	.st0{fill:#FFFFFF;}
</style>
<path class="st0" d="M46.7,28.1c0-0.1,0.1-0.1,0.1-0.2c0,0,0,0,0,0L46.7,28.1c0-0.1,0.1-0.1,0.1-0.1c0,0,0,0,0,0
	C46.8,27.9,46.8,27.9,46.7,28.1c0,0,0,0.1-0.1,0.1c0,0.1-0.1,0.2-0.1,0.2l-0.2,0.3c0,0,0,0.1-0.1,0.1c0,0,0,0.1-0.1,0.1l-0.1,0.2
	c-0.1,0.2-0.3,0.5-0.4,0.7c-0.1,0.2-0.2,0.4-0.4,0.5c0,0,0,0,0,0c0,0,0,0.1-0.1,0.1c0,0,0,0,0,0l-0.1,0.2c0,0,0,0,0,0
	c0,0-0.1,0.1-0.1,0.1c-0.2,0.2-0.4,0.3-0.6,0.5c-0.4,0.2-0.9,0.3-1.5,0.3c-0.3,0-0.7,0-1.1-0.1c-3.9-0.5-9.3-3.9-12.2-7.7
	c0-0.1-0.1-0.1-0.1-0.2v0l0,0l0,0v0c-0.4-0.5-0.7-1-1-1.5c0,0,0,0,0,0c0,0,0,0,0,0c0.3-0.1,0.5-0.5,0.5-1c0-0.2,0-0.5,0-0.8
	c0-0.2,0-0.4-0.1-0.7c-0.1-0.6-0.2-1.3-0.4-2c-0.2-0.9-0.5-1.8-0.9-2.7c-0.2-0.6-0.5-1.1-0.7-1.7c-0.8-1.8-1.8-3.7-2.9-5.3
	c-0.3-0.5-0.7-1-1-1.4c0,0-0.1-0.1-0.1-0.1c-0.5-0.7-1-1.3-1.5-1.7c-0.6-0.6-1.2-1-1.7-1.2c-0.2-0.1-0.3-0.1-0.5-0.1
	c-0.1,0-0.2,0-0.2,0.1c0.5-0.2,1.1-0.5,1.6-0.8h0c0,0,0,0,0,0l0.1-0.1c0.2-0.1,0.5-0.2,0.8-0.3l0.1,0c0,0,0,0-0.1,0c0,0,0,0-0.1,0
	c0.1-0.1,0.3-0.1,0.4-0.2h0c0.2,0,0.3,0,0.5,0c0.5,0.1,1.2,0.4,1.8,1c0.5,0.4,1,0.9,1.5,1.6c0.1,0.1,0.1,0.2,0.2,0.3
	c0.3,0.4,0.5,0.8,0.8,1.2c1.2,1.9,2.3,4.2,3,6.5c0.2,0.5,0.3,1.1,0.5,1.6c0.2,0.9,0.4,1.7,0.5,2.6c0.1,0.7,0.1,1.4,0.1,2
	c0,0.3,0,0.5-0.1,0.7c0,0.2-0.1,0.3-0.1,0.4c0,0,0,0,0,0c0,0.2-0.1,0.3-0.1,0.4c-0.2,0.6-0.6,1-1,1.2c0,0-0.1,0-0.1,0
	c-0.1,0-0.2,0.1-0.3,0.1L29,21.8c0.2,0.4,0.5,0.8,0.8,1.2c0,0,0.1,0.1,0.1,0.1c0.6,0.7,1.2,1.4,2,2.1c3.1,2.7,7.5,4.6,11,4.6
	c0.5,0,1-0.1,1.5-0.2c0.7-0.2,1.3-0.4,1.7-0.8c0.2-0.2,0.4-0.4,0.6-0.6l0,0c0,0,0-0.1,0-0.1C46.7,28.1,46.7,28.1,46.7,28.1z
	 M13.2,7.1L13.2,7.1L13.2,7.1C13.2,7.1,13.2,7.1,13.2,7.1z M42.4,34c-0.1,0.1-0.4,0.2-0.6,0.2c-0.3,0-0.7,0-1.1-0.1
	c-0.2-0.1-0.5-0.1-0.7-0.3c-1.5-0.6-3.2-1.7-5-3.1c-1-0.8-2.1-1.7-3.1-2.7c-1.2-1.1-2.3-2.4-3.2-3.5c-0.5-0.6-0.8-1.2-1.1-1.7
	c0-0.1-0.1-0.1-0.1-0.2c0,0,0,0,0,0c-0.1,0.1-0.2,0.1-0.3,0.2l0,0c-0.1,0-0.1,0.1-0.2,0.1c0,0,0,0,0,0c0.1,0,0.1-0.1,0.1-0.2
	c0-0.1,0-0.3-0.1-0.4c0-0.2-0.1-0.4-0.2-0.6c-0.1-0.2-0.1-0.4-0.2-0.6c-0.2-0.6-0.5-1.2-0.9-1.9c-0.5-0.9-1.1-2-1.7-3.1
	c-1.2-2-2.6-4.2-3.9-6.1c-0.3-0.5-0.7-0.9-1-1.3c-0.3-0.5-0.7-0.9-1-1.2c-0.7-0.9-1.3-1.5-1.7-1.8c-0.1-0.1-0.3-0.2-0.4-0.2
	c-0.1,0-0.2-0.1-0.2,0c0,0,0,0,0,0c0,0,0,0-0.1,0c0,0,0,0,0,0c0,0-0.1,0-0.1,0.1c-0.2,0.1-0.5,0.3-0.7,0.4c0,0-0.1,0-0.1,0.1l0,0
	c-0.2,0.2-0.5,0.4-0.8,0.6c0,0,0,0,0,0c0,0-0.1,0-0.1,0.1c0,0-0.1,0-0.1,0.1c-0.1,0.1-0.2,0.1-0.3,0.2c0,0-0.1,0-0.1,0.1
	c0,0,0,0-0.1,0c0,0,0,0,0,0c0,0,0,0,0,0c0,0,0,0,0,0c0,0,0,0,0,0l0,0c0,0,0.1,0.1,0.2,0.2c0.1,0.1,0.2,0.3,0.3,0.4
	c0.4,0.5,1,1.3,1.8,2.4c0.1,0.2,0.3,0.4,0.4,0.5c0.8,1,1.6,2.1,2.5,3.3c0.5,0.7,1.1,1.5,1.7,2.2c1.2,1.6,2.3,3.1,3.2,4.3
	c0.5,0.7,0.9,1.3,1.3,1.8c0.1,0.2,0.3,0.4,0.4,0.5c0.2,0.2,0.3,0.4,0.4,0.5c0.2,0.3,0.3,0.5,0.3,0.5c-0.2,0.1-0.4,0.3-0.5,0.4
	c0,0,0,0-0.1,0.1c0,0,0,0,0,0c0,0,0,0,0,0l0,0c0.2,0.2,0.4,0.5,0.6,0.8c0.3,0.4,0.6,0.8,0.9,1.2c0,0,0,0,0,0c0.4,0.5,0.7,1,1.1,1.5
	c1.3,1.8,2.7,3.9,3.9,5.8c0.7,1.1,1.3,2.1,1.8,3c0.4,0.7,0.8,1.4,1,2c0,0,0,0,0.1,0c0,0,0,0-0.1,0c0.1,0.2,0.2,0.4,0.3,0.6
	c0.1,0.3,0.2,0.5,0.3,0.7c0.1,0.3,0.1,0.5,0.1,0.5c0,0,0,0,0,0c0.1,0,0.1-0.1,0.2-0.1l0.2-0.1l0,0c0.5-0.4,1.2-0.8,1.7-1.2
	c0.1-0.1,0.2-0.1,0.3-0.2c0,0,0,0,0,0c0,0-0.1-0.1-0.3-0.3c-0.1-0.2-0.3-0.4-0.5-0.6c-0.1-0.1-0.2-0.3-0.4-0.5c0,0,0,0-0.1,0
	c0,0,0,0,0.1,0c-0.4-0.5-1-1.2-1.6-2c-1.2-1.6-2.7-3.5-4.2-5.4c0,0,0,0,0,0c-1.1-1.4-2.1-2.8-3.1-4.1c0,0,0,0,0,0
	c-0.1-0.2-0.2-0.3-0.4-0.5c-0.5-0.6-0.9-1.2-1.2-1.6c0.1-0.1,0.2-0.1,0.3-0.2l0.2-0.2l0.1-0.1c0,0,0,0,0,0l0,0c0,0,0.1,0,0.1-0.1
	c0,0,0,0,0,0c0.1,0,0.1-0.1,0.2-0.1c0.3,0.6,0.8,1.3,1.4,2c0.3,0.4,0.7,0.9,1,1.3c2,2.4,4.4,4.9,6.6,6.8c1,0.8,1.9,1.6,2.7,2.1
	c0.2,0.1,0.4,0.3,0.6,0.4c0.3,0.2,0.6,0.3,0.9,0.4c0.2,0.1,0.4,0.1,0.5,0c0,0,0,0,0,0c0,0,0,0,0,0l0,0l0,0l0.3-0.3l0,0c0,0,0,0,0,0
	c0,0,0.1-0.1,0.1-0.1c0.2-0.2,0.4-0.4,0.6-0.6c0,0,0.1-0.1,0.1-0.1c0.1-0.1,0.2-0.2,0.3-0.3c0,0,0,0,0,0c0,0,0,0,0,0l0,0
	c0.1-0.1,0.2-0.2,0.3-0.3c0,0,0,0,0,0c0,0,0,0,0,0C42.3,34.1,42.4,34,42.4,34C42.4,34,42.4,34,42.4,34C42.4,34,42.5,33.9,42.4,34
	C42.5,33.9,42.4,33.9,42.4,34C42.4,34,42.4,34,42.4,34z M42.5,33.8C42.6,33.8,42.6,33.8,42.5,33.8C42.5,33.8,42.5,33.9,42.5,33.8
	C42.5,33.9,42.5,33.9,42.5,33.8z M1.5,36.3c0,0,0,0.1,0.1,0.1c0,0.1,0.1,0.1,0.1,0.2c-0.1-0.2-0.2-0.4-0.3-0.5
	C1.5,36.2,1.5,36.3,1.5,36.3z M20.9,28.9c0,0,0,0.1,0,0.1C20.9,29,20.9,29,20.9,28.9L20.9,28.9z M49.9,15.7
	C49.9,15.7,49.9,15.7,49.9,15.7L49.9,15.7c0-0.1,0-0.1,0-0.2c0-0.1,0-0.2,0-0.3c0-0.1,0-0.2,0-0.3c0,0,0,0,0,0c0,0,0,0,0,0
	c0,0.1,0,0.1,0,0.2c0,0.3,0,0.6,0,0.8c0-0.2,0-0.5,0-0.8c0.1,2.3-0.7,5.4-5.2,7.8c0,0.1,0,0.1,0,0.2c0-0.1,0-0.1,0-0.2
	c-0.7,0.4-1.5,0.6-2.3,0.8c-1.1,0.3-2.3,0.4-3.4,0.4c-3.1,0-6-1.1-7.9-3.1c0.1,0,0.2,0,0.3-0.1l0.1,0l0,0c0,0,0,0,0,0
	c0,0,0.1,0,0.1,0c2.2,1.8,5.4,2.4,8.6,1.8c0.9-0.2,1.9-0.5,2.7-0.9c0.5-0.2,1-0.5,1.4-0.8c4.2-2.6,6-7.2,4.5-10.8
	c-0.1-0.3-0.2-0.5-0.3-0.7c0,0,0,0,0-0.1c-0.1-0.2-0.2-0.4-0.3-0.5c-0.1-0.2-0.2-0.4-0.3-0.6c-0.1-0.1-0.1-0.2-0.2-0.3
	c-0.1-0.1-0.2-0.3-0.3-0.4c0.7,1.1,1,2.4,1,3.7c0,1-0.1,2-0.5,3c-0.7,2.1-2.1,4.1-4.2,5.7c-0.4,0.3-0.8,0.5-1.2,0.8
	c-0.7,0.4-1.5,0.8-2.3,1c-3,1-6.1,0.7-8.4-0.9h0c0.1,0,0.2,0,0.3-0.1c2.2,1.1,5,1.1,7.6-0.2c0.6-0.3,1.3-0.7,1.9-1.1
	c0.3-0.2,0.7-0.5,1-0.8c1.1-1,2.1-2.2,2.7-3.5c1.6-3.1,1.8-6.7,0.4-9.4c-0.2-0.3-0.4-0.6-0.6-0.9c-0.4-0.5-0.9-1-1.4-1.4
	c-0.4-0.3-1.1-0.7-1.5-1c0,0,0,0,0,0c0,0,0,0,0,0c-0.2-0.1-0.3-0.2-0.5-0.3c-0.1,0-0.1-0.1-0.2-0.1c0,0,0,0-0.1,0
	C41.1,2,41,2,40.9,1.9l0,0c0,0,0,0,0,0c0,0,0,0,0,0c0,0-0.1,0-0.1,0c0,0,0,0,0,0c0,0,0,0,0,0c0,0-0.1,0-0.1,0c0,0,0,0,0,0
	c0,0-0.1,0-0.1,0c0,0,0,0,0,0c-0.1,0-0.2-0.1-0.2-0.1c0,0,0,0,0,0c0.1,0.1,0.3,0.1,0.4,0.2c0.1,0,0.2,0.1,0.2,0.1c0,0,0,0,0,0
	c0.7,0.4,1.3,0.9,1.8,1.5c0.1,0.1,0.2,0.3,0.3,0.4c2.2,3,2.2,7.5,0.3,11.2c-0.5,1.1-1.3,2.1-2.1,3h0l0,0c-0.3,0.3-0.6,0.6-0.9,0.8
	c-0.5,0.4-1,0.8-1.6,1.1c-2.2,1.3-4.7,1.6-6.7,0.8c0.8-0.2,1.5-0.7,2.1-1.5c0.2-0.3,0.5-0.6,0.7-1c0.1-0.3,0.3-0.5,0.4-0.8
	c0,0,0,0,0,0c0,0,0,0,0,0c0.3-0.7,0.5-1.4,0.6-2.2c0.2-0.9,0.3-1.8,0.3-2.7c0-0.6,0-1.2-0.1-1.8C36,8.4,35.3,6,34.2,4
	c-0.2-0.4-0.5-0.8-0.8-1.2c-0.1-0.1-0.2-0.2-0.3-0.4C32.6,1.9,32,1.4,31.5,1c-0.7-0.5-1.4-0.7-2.1-0.8c-0.2,0-0.4,0-0.5,0
	c-0.1,0-0.1,0-0.2,0l-1.2,0.2l0,0c0,0,0,0-0.1,0c0,0-0.1,0-0.1,0c-0.5,0.1-1,0.2-1.4,0.3c0.2,0,0.4,0,0.6,0c0.6,0,1.3,0.3,2,0.8
	C29,2,29.5,2.5,30,3c0.1,0.1,0.2,0.3,0.4,0.5c0.2,0.2,0.4,0.5,0.5,0.7c1.3,2,2.3,4.7,2.7,7.3c0.1,0.6,0.2,1.2,0.2,1.7
	c0.1,0.9,0.1,1.7,0,2.6c-0.1,0.7-0.2,1.4-0.3,2.1v0c-0.1,0.3-0.2,0.6-0.3,0.8c-0.1,0.4-0.3,0.7-0.5,1c-0.5,0.8-1.1,1.2-1.8,1.4l0,0
	c0,0,0,0,0,0c-0.1,0-0.1,0-0.2,0.1c0,0,0,0,0,0c1.5,1.8,3.8,3.1,6.4,3.6c1.4,0.3,2.8,0.4,4.2,0.3c1.2-0.1,2.3-0.4,3.4-0.8
	c3.1-1.3,4.8-3.3,5.2-6c0,0,0-0.1,0-0.1c0,0,0,0,0,0c0-0.1,0-0.3,0-0.5c0,0,0-0.1,0-0.1v0c0-0.3,0-0.5,0-0.7c0,0.2,0,0.4,0,0.7
	c0,0,0,0,0,0c0-0.3,0-0.5,0-0.7C50,16.5,50,16,49.9,15.7z M31.8,40c-0.1-0.6-0.3-1.3-0.5-2c-0.3-0.9-0.6-1.8-1-2.8
	c-0.3-0.7-0.6-1.4-1-2.2c-0.7-1.5-1.5-3-2.4-4.3c-0.4-0.6-0.7-1.1-1.1-1.6c-0.1-0.1-0.2-0.2-0.3-0.4c-0.5-0.7-1-1.2-1.4-1.7
	l-0.1-0.1l0,0c-0.1,0.1-0.4,0.1-0.7-0.1c-0.2-0.1-0.4-0.2-0.6-0.3c-0.2-0.1-0.4-0.2-0.5-0.4h0c-0.7-0.5-1.5-1.2-2.4-1.9
	c-2.3-2-4.9-4.9-7-7.4c-0.3-0.3-0.5-0.7-0.8-1c-0.8-1-1.3-1.9-1.7-2.6c-0.2-0.3-0.3-0.6-0.4-0.8C9.9,10.1,9.9,9.9,10,9.7
	c0,0,0,0,0,0c0,0,0,0,0,0c0,0,0,0-0.1,0.1L9.7,10l-0.4,0.4c0,0-0.1,0.1-0.2,0.1c0,0,0,0,0,0c-0.1,0.1-0.2,0.2-0.3,0.3
	c-0.2,0.2-0.5,0.5-0.7,0.7c0,0.1-0.1,0.1-0.2,0.2c0,0,0,0-0.1,0.1c0,0,0,0,0,0c0,0,0,0,0,0c-0.2,0.3-0.2,0.7,0,1.4
	c0.1,0.3,0.3,0.7,0.5,1.2c0.3,0.6,0.7,1.2,1.3,1.9c0.7,0.9,1.5,1.9,2.5,2.9c1.3,1.4,2.8,2.7,4.2,3.8c1.6,1.2,3.1,2.2,4.4,2.8h0
	c0.3,0.1,0.5,0.2,0.7,0.3c0.3,0.1,0.6,0.2,0.8,0.2c0.4,0,0.7,0,0.9-0.2l0,0c0,0,0,0,0,0c0,0,0,0,0.1-0.1l0.1-0.1l0.1-0.1
	c0.4,0.4,0.8,0.8,1.2,1.3c0.1,0.1,0.1,0.1,0.2,0.2c0.3,0.4,0.6,0.8,0.8,1.2c1.2,1.9,2.3,4.1,3,6.3c0.2,0.5,0.4,1.1,0.5,1.6
	c0.2,0.9,0.4,1.8,0.5,2.6c0.1,0.7,0.1,1.4,0.1,2c0,0.2,0,0.5,0,0.7c0,0.4-0.1,0.7-0.2,0.9c-0.2,0.5-0.4,0.9-0.8,1c0,0,0,0,0,0
	c-0.1,0-0.1,0.1-0.2,0.1c0,0,0.1,0,0.1,0l0.5-0.2h0c0,0,0,0,0,0c0.6-0.3,1.3-0.6,1.9-0.9c0.1,0,0.2-0.1,0.3-0.1c0,0,0.1,0,0.1-0.1
	c0.2-0.1,0.3-0.4,0.4-0.8c0-0.2,0-0.5,0-0.8C31.9,40.5,31.9,40.3,31.8,40z M27.2,35.4c-0.5-2.5-1.4-5-2.7-7
	c-0.2-0.3-0.4-0.6-0.6-0.9c0,0,0,0,0,0c0,0,0,0,0,0c0,0,0,0,0.1,0c-0.1-0.1-0.2-0.3-0.3-0.4c-0.2-0.3-0.5-0.5-0.7-0.8
	c0,0-0.1,0.1-0.1,0.1c0,0,0,0,0,0c0,0,0,0,0,0l0,0c0,0,0,0,0,0c0,0,0,0,0,0c0,0,0,0,0,0c0,0,0,0,0,0c0,0,0,0,0,0
	c-0.1,0.1-0.1,0.2-0.2,0.3c0.1,0.1,0.3,0.3,0.4,0.5c0.1,0.1,0.2,0.3,0.3,0.4c0,0,0,0,0.1,0c0,0,0,0,0,0c0,0,0,0,0,0
	c0.2,0.3,0.5,0.6,0.7,1c1.2,2,2,4.5,2.2,7c0.1,0.6,0.1,1.1,0.1,1.7c0,1-0.1,1.9-0.2,2.8c-0.1,0.8-0.3,1.5-0.6,2.2c0,0,0.1,0,0.1,0
	c0,0-0.1,0-0.1,0c-0.1,0.3-0.2,0.5-0.4,0.8c-0.2,0.4-0.4,0.8-0.7,1.1c-0.6,0.8-1.3,1.3-2.1,1.5l-0.1,0c-0.1,0-0.3,0-0.4,0.1
	c0.1,0,0.2,0,0.2,0c0,0,0,0,0,0l0,0l0.6-0.1c0,0,0,0,0,0c0,0,0,0,0,0c0,0,0,0,0,0c0.1,0,0.1,0,0.2,0c0.2,0,0.4-0.1,0.6-0.1
	c0.3-0.1,0.5-0.1,0.7-0.2c0,0,0.1,0,0.1,0c0.1,0,0.2-0.1,0.3-0.1c0,0,0,0,0.1,0c0.1,0,0.2-0.1,0.3-0.1c0,0,0.1,0,0.1,0c0,0,0,0,0,0
	c0.6-0.2,1-0.6,1.4-1.3c0.2-0.3,0.3-0.7,0.5-1.1c0.1-0.2,0.2-0.5,0.2-0.7c0,0-0.1,0-0.1,0c0,0,0.1,0,0.1,0c0.2-0.6,0.3-1.4,0.3-2.1
	c0-0.9,0-1.8-0.1-2.7C27.4,36.5,27.3,36,27.2,35.4z M22.9,42.5c0.4-0.7,0.8-1.5,1-2.3c0.3-1,0.6-2.2,0.6-3.3c0.1-0.8,0.1-1.6,0-2.4
	c-0.1-1.7-0.5-3.4-1.2-4.9c-0.2-0.5-0.5-1-0.9-1.5c-0.1-0.1-0.2-0.2-0.2-0.3c-0.1-0.1-0.2-0.2-0.3-0.3c0,0,0-0.1,0.1-0.1l0-0.1
	c-0.2,0.3-0.5,0.5-0.8,0.6C21.2,27.9,21,28,20.7,28c0,0,0,0-0.1,0c-0.2,0-0.5,0-0.7,0c-0.3,0-0.7,0-1.1-0.1
	c-3.9-0.7-9.4-4.3-12.2-8.1c-0.1-0.1-0.2-0.3-0.3-0.4c-0.4-0.6-0.8-1.2-1-1.8c-0.5-1.1-0.5-2-0.1-2.6c0,0,0-0.1,0-0.1l-0.5,0.7l0,0
	c0,0,0,0,0,0c0,0,0,0,0,0c-0.1,0.1-0.2,0.3-0.3,0.4c-0.1,0.2-0.2,0.4-0.4,0.5c-0.1,0.2-0.3,0.4-0.4,0.6c0,0,0,0,0,0l0,0c0,0,0,0,0,0
	c0,0,0,0,0,0c0,0,0,0,0,0c0,0,0,0,0,0c0,0,0,0,0,0c0,0,0,0.1-0.1,0.1c-0.5,1-0.3,2.4,0.6,3.9c0.2,0.4,0.4,0.7,0.7,1.1
	c0.3,0.4,0.7,0.9,1.1,1.3c3.1,3.2,8,5.7,11.8,5.7c0.6,0,1.1,0,1.5-0.1c0.7-0.1,1.2-0.4,1.7-0.7c0,0,0,0,0,0
	c0.9,3.5-0.8,7.6-4.7,10.1v0c-0.5,0.3-1,0.6-1.5,0.8c-0.8,0.4-1.7,0.7-2.5,0.9c-3.8,0.9-7.8-0.1-9.9-2.9c-0.2-0.3-0.4-0.6-0.6-0.9
	C1.9,37,1.9,37.1,2,37.3c0.2,0.3,0.3,0.6,0.5,0.9c0.2,0.3,0.5,0.7,0.8,1.2c0,0,0,0,0,0c0,0,0,0,0,0c0.1,0.1,0.2,0.2,0.2,0.3
	c0.1,0.1,0.1,0.1,0.2,0.2c2.3,2.6,6.2,3.2,9.9,1.9c0.7-0.3,1.4-0.6,2.1-1c0.4-0.2,0.8-0.5,1.2-0.8c0,0,0,0,0,0
	c0.2,0,0.4-0.3,0.5-0.4l0.4-0.3c0,0,0.1-0.1,0.1-0.1C17.9,39.1,18,39,18,39c0,0,0,0,0,0c0.1-0.1,0.1-0.1,0.2-0.2l0,0
	c0,0,0.1-0.1,0.1-0.1c0,0,0,0,0.1-0.1c0,0,0.1-0.1,0.1-0.1c0,0,0,0,0.1-0.1c0,0,0.1-0.1,0.1-0.1c0,0,0,0,0.1-0.1
	c0,0,0.1-0.1,0.1-0.1c0,0,0,0,0.1-0.1c0,0,0,0,0,0c0,0,0-0.1,0.1-0.1c0,0,0,0,0.1-0.1c0,0,0.1-0.1,0.1-0.1c0,0,0,0,0.1-0.1
	c0-0.1,0.1-0.1,0.1-0.2c0,0,0,0,0,0c0-0.1,0.1-0.1,0.1-0.2c0,0,0,0,0,0c0,0,0,0,0-0.1c0,0,0,0,0-0.1c0,0,0,0,0,0c0,0,0,0,0,0
	c0,0,0,0,0,0c0,0,0-0.1,0-0.1c0,0,0-0.1,0.1-0.1c0,0,0,0,0,0c0,0,0,0,0,0c0,0,0,0,0,0c0,0,0,0,0,0c0,0,0-0.1,0.1-0.1c0,0,0,0,0,0
	c0,0,0,0,0,0c0,0,0,0,0,0c0,0,0-0.1,0.1-0.1c0,0,0-0.1,0-0.1c0,0,0,0,0,0c0,0,0,0,0,0c0,0,0,0,0,0c0,0,0,0,0,0c0,0,0-0.1,0-0.1
	c0,0,0,0,0,0c0,0,0,0,0,0c0,0,0,0,0-0.1c0,0,0,0,0,0c0,0,0,0,0-0.1c0,0,0,0,0,0c0,0,0-0.1,0-0.1c0,0,0,0,0-0.1c0,0,0,0,0,0
	c0,0,0,0,0,0c0,0,0,0,0,0c0,0,0-0.1,0-0.1c0,0,0-0.1,0-0.1c0,0,0,0,0,0c0,0,0,0,0,0c0,0,0-0.1,0-0.1c0,0,0,0,0,0c0,0,0,0,0-0.1
	c0,0,0,0,0,0c0,0,0,0,0,0c0,0,0,0,0,0c0,0,0,0,0,0c0,0,0-0.1,0-0.1c0,0,0,0,0,0c0,0,0,0,0,0c0,0,0,0,0,0c0,0,0,0,0,0c0,0,0,0,0,0
	c0,0,0,0,0-0.1c0,0,0,0,0,0c0,0,0,0,0,0c0,0,0,0,0,0c0,0,0-0.1,0-0.1c0,0,0,0,0,0c0,0,0,0,0,0c0,0,0,0,0,0c0,0,0-0.1,0-0.1
	c0,0,0-0.1,0-0.1c0,0,0,0,0,0c0-0.1,0-0.1,0.1-0.2c0,0,0-0.1,0-0.1c0,0,0,0,0,0c0,0,0-0.1,0-0.1c0,0,0,0,0,0c0,0,0,0,0,0
	c0-0.1,0-0.1,0.1-0.2c0,0,0-0.1,0-0.1c0-0.1,0-0.1,0.1-0.2c0,0,0-0.1,0-0.1c0-0.1,0-0.1,0-0.2c0,0,0-0.1,0-0.1c0,0,0,0,0,0
	c0,0,0-0.1,0-0.1c0-0.1,0-0.1,0-0.2c0,0,0,0,0,0c0,0,0-0.1,0-0.1c0,0,0,0,0,0c0,0,0,0,0,0c0,0,0-0.1,0-0.1l0-0.1c0,0,0,0,0,0v0
	c0,0,0,0,0,0c0,0,0,0,0,0v0c0,0,0,0,0,0c0,0,0,0,0-0.1c0,0,0,0,0,0v0c0,0,0,0,0-0.1v0c0,0,0,0,0,0v-0.1v0c0,0,0,0,0-0.1v-0.1
	c0,0,0,0,0,0v0c0,0,0,0,0-0.1v-0.2c0,0,0,0,0,0v-0.1c0,0,0,0,0,0v0c0,0,0,0,0-0.1v0c0,0,0,0,0,0c0,0,0,0,0,0c0,0,0,0,0,0v0
	c0,0,0,0,0,0c0,0,0,0,0,0c0,0,0,0,0-0.1c0,0,0,0,0-0.1c0,0,0,0,0-0.1v0c0,0,0,0,0,0v0c0,0,0,0,0,0c0,0,0,0,0,0c0,0,0,0,0,0
	c0,0,0,0,0-0.1v0c0,0,0-0.1,0-0.1v0c0,0,0,0,0,0c0,0,0,0,0,0c0,0,0,0,0,0c0,0,0,0,0-0.1c0,0,0,0,0,0c0,0,0-0.1,0-0.1c0,0,0,0,0,0
	c0,0,0,0,0,0c0,0,0,0,0,0c0,0,0,0,0-0.1c0,0,0-0.1,0-0.1c0,0,0,0,0,0c0,0,0,0,0,0c0,0,0,0,0,0c0,0,0-0.1,0-0.1c0,0,0,0,0,0
	c0,0,0,0,0,0c0,0,0,0,0-0.1c0,0,0,0,0,0c0,0,0,0,0,0c0,0,0-0.1,0-0.1c0,0,0-0.1,0-0.1c0,0,0,0,0,0c0,0,0,0,0,0c0,0,0,0,0,0
	c0,0,0,0,0,0l0,0c0,0,0,0,0,0c0,0,0-0.1,0-0.1l0-0.1l0.1-0.3c1.3,2.7,1,6.2-0.6,9.2c-0.6,1.2-1.5,2.4-2.6,3.4c0,0,0,0,0,0
	c0,0,0,0,0,0c-0.3,0.3-0.6,0.5-1,0.8c-0.6,0.4-1.1,0.8-1.7,1.1c-2.8,1.5-5.7,1.5-8.3,0c0,0,0,0-0.1,0c0,0,0,0,0.1,0
	c0.1,0.1,0.2,0.1,0.2,0.2c0,0,0.1,0,0.1,0.1c0,0,0,0,0,0c0,0,0.1,0,0.1,0.1c0.1,0.1,0.2,0.2,0.4,0.2c0,0,0,0,0,0
	c0.1,0.1,0.3,0.2,0.4,0.2c0,0,0,0,0,0C8.7,43.9,8.8,44,8.9,44c0.2,0.1,0.4,0.2,0.7,0.3c0.1,0.1,0.3,0.1,0.5,0.2c0,0,0,0,0,0
	c0,0,0,0,0,0c-0.1-0.1-0.3-0.1-0.4-0.2c0.3,0.1,0.7,0.3,1,0.4c2,0.6,4.2,0.3,6.3-1c0.5-0.3,1.1-0.7,1.6-1.2c0.3-0.3,0.5-0.5,0.8-0.8
	c0,0,0,0,0,0c0,0,0,0,0,0c0.8-0.9,1.5-1.9,2.1-3c0.9-1.8,1.4-3.9,1.3-5.8c0-0.5,0-0.9-0.1-1.4c-0.2-1.2-0.5-2.3-1.1-3.3c0,0,0,0,0,0
	c0-0.1,0.1-0.1,0.1-0.2c0,0,0,0,0,0c0,0,0-0.1,0-0.1l0.1-0.2c0.2,0.3,0.4,0.6,0.6,0.9c0.5,0.9,0.9,2,1.1,3.1c0,0.2,0.1,0.4,0.1,0.6
	c0.2,1.2,0.2,2.5,0,3.8c-0.2,1.2-0.5,2.5-0.9,3.6c-0.4,0.9-0.8,1.7-1.4,2.5c-0.2,0.3-0.4,0.6-0.7,0.8c-0.4,0.4-0.8,0.8-1.2,1.2
	c-1.5,1.1-3.1,1.6-4.6,1.5c0.3,0,0.6,0.1,0.9,0.1h0c0,0,0.1,0,0.1,0c0.1,0,0.1,0,0.2,0c0,0,0.1,0,0.1,0c0,0,0.1,0,0.1,0
	c0,0-0.1,0-0.1,0c0.2,0,0.3,0,0.5,0c0.2,0,0.4,0,0.6,0c0,0,0,0,0,0c0,0,0.1,0,0.1,0c0,0,0,0,0.1,0c0,0,0.1,0,0.1,0
	c0.1,0,0.1,0,0.2,0c0,0,0.1,0,0.1,0c0,0,0,0,0,0c0,0,0,0,0,0h0.1c0.1,0,0.2,0,0.3,0c1.2-0.1,2.3-0.6,3.3-1.6c0.3-0.3,0.7-0.7,1-1.1
	C22.5,43.1,22.7,42.8,22.9,42.5z M1.8,36.8C1.8,36.8,1.8,36.8,1.8,36.8C1.8,36.8,1.8,36.8,1.8,36.8C1.7,36.8,1.8,36.8,1.8,36.8z
	 M47.3,7.6c-0.1-0.2-0.2-0.3-0.3-0.5C47.1,7.3,47.2,7.5,47.3,7.6z M47.9,24.5c-0.8,0.9-2.1,1.5-3.6,1.9c0,0,0,0,0,0c0,0,0,0,0,0
	c-1.9,0.5-4.1,0.4-6.2,0c-1.6-0.4-3.2-1-4.5-1.8c-1.3-0.8-2.4-1.8-3.3-2.9c0,0,0,0,0,0c0,0,0,0,0,0c-0.1-0.1-0.2-0.2-0.2-0.3
	c-0.1,0-0.2,0.1-0.3,0.1c-0.1,0-0.1,0-0.2,0.1c0.2,0.3,0.3,0.5,0.5,0.8c0,0,0,0,0,0c0,0,0,0,0,0c0.4,0.6,0.9,1.1,1.5,1.6
	c0.9,0.8,1.9,1.5,3,2.1c2.9,1.6,6.3,2.4,9.2,2c0-0.1,0.1-0.2,0.1-0.2c0,0.1-0.1,0.2-0.1,0.2c0.9-0.1,1.7-0.4,2.4-0.7
	c0.8-0.4,1.4-1,1.8-1.6c0,0,0,0,0-0.1c0-0.1,0.1-0.1,0.1-0.2c0,0,0,0,0-0.1c0,0,0-0.1,0.1-0.1c0,0,0,0,0,0c0.1-0.2,0.1-0.4,0.2-0.6
	c0,0,0-0.1,0-0.1c0.2-0.6,0.5-1.3,0.7-1.9c0,0,0,0,0,0c0,0,0,0,0,0C48.8,23.4,48.4,24,47.9,24.5z M10.1,38.6c1.1,0,2.3-0.2,3.4-0.5
	c0.8-0.2,1.5-0.5,2.2-0.9c3.5-1.8,5.4-4.9,5.2-7.8c0-0.1,0-0.2,0-0.3c0,0.1,0,0.1,0,0.3c0,0,0,0,0,0c-0.4,0.8-1,1.4-2,1.9
	c-0.7,0.4-1.5,0.6-2.4,0.8h0c-2.8,0.4-6-0.2-8.8-1.6c-1.3-0.7-2.5-1.5-3.6-2.4c-0.5-0.5-1-1-1.3-1.5c-1.3-1.8-1.7-3.5-1.3-4.9
	c0,0,0,0,0-0.1c0,0,0,0,0,0c0,0,0,0,0,0c0-0.1,0.1-0.2,0.1-0.2c0,0.1,0,0.1-0.1,0.2c0,0.1-0.1,0.2-0.1,0.4c0,0,0,0,0,0s0,0,0,0
	c0,0.1-0.1,0.2-0.1,0.3c0,0.1-0.1,0.2-0.1,0.3c0,0.1-0.1,0.2-0.1,0.2c-0.1,0.4-0.3,0.9-0.4,1.3c0,0,0,0.1,0,0.1c0,0,0,0,0,0
	c0,0,0,0,0,0c0,0,0,0,0,0s0,0,0,0c0,0,0,0,0,0c-0.6,3.1,1.5,6.1,4.9,8c1.4,0.8,2.9,1.3,4.6,1.6c1.9,0.3,3.9,0.3,5.8-0.1h0
	c2.1-0.6,3.3-1.5,4-2.4c0.6-0.8,0.8-1.5,0.9-1.8c0,0.8-0.2,1.9-1,3c-0.8,1.2-2.1,2.3-4.3,3.3h0c-1,0.4-2.1,0.7-3.1,0.8
	c-1.4,0.2-2.9,0.2-4.2-0.1c-4.4-0.8-8-3.7-8.2-7.6c0-0.1,0-0.1,0-0.2v0.1c0,0,0,0,0,0.1v0c0,0.1,0,0.1,0,0.2l0,0.2c0,0,0,0,0,0.1
	c0,0.1,0,0.2,0,0.3c0,0.1,0,0.3,0,0.4c0,0,0,0.1,0,0.1c0,0.1,0,0.1,0,0.1c0,0,0,0,0,0v0.1c0,0,0,0.1,0,0.1v0c0,0.1,0,0.1,0,0.2
	c0,0.1,0,0.1,0,0.2c0,0,0,0,0,0c0,0,0,0.1,0,0.1c0,0,0,0.1,0,0.1c0,0,0,0.1,0,0.1c0,0,0,0.1,0,0.1c0,0,0,0,0,0c0,0.1,0,0.1,0,0.2
	c0,0,0,0.1,0,0.1v0c0,0,0,0,0,0c0,0,0,0.1,0,0.1c0,0,0,0,0,0v0l0,0.1c0,0,0,0,0,0c0,0,0,0,0,0C0.4,33,0.8,34,1.6,35
	C3.4,37.4,6.7,38.7,10.1,38.6z M33.4,0.1C33.4,0.1,33.5,0.1,33.4,0.1c0.9,0.1,1.6,0.4,2.3,0.9c0.6,0.4,1.2,1,1.7,1.7
	c0.1,0.1,0.1,0.2,0.2,0.3c0.3,0.5,0.6,1,0.9,1.6c0.7,1.5,1.1,3.3,1.2,5.1c0,0.7,0,1.4-0.1,2.2c-0.1,1.1-0.3,2.2-0.7,3.2
	c-0.3,0.9-0.7,1.7-1.1,2.4c-0.2,0.3-0.4,0.6-0.6,0.8c-0.3,0.4-0.6,0.8-1,1.1c-1.2,1.1-2.6,1.7-3.9,1.6h0c0,0,0,0-0.1,0l0.1,0h-0.1
	c0,0,0.1,0,0.1,0c1.7,0.3,3.5-0.2,5.1-1.4c0.4-0.3,0.8-0.7,1.2-1.1c0.2-0.3,0.5-0.5,0.7-0.8h0v0c0.6-0.8,1.1-1.7,1.5-2.6
	c0.5-1.2,0.8-2.5,1-3.8c0.3-2.4-0.1-4.9-1.1-6.9c-0.2-0.5-0.5-0.9-0.8-1.3c-0.4-0.5-0.9-1-1.3-1.4c-0.8-0.6-1.6-1-2.4-1.1
	c0,0,0,0,0,0l-0.3,0c-0.2,0-0.4-0.1-0.6-0.1c-0.1,0-0.2,0-0.3,0c0,0-0.1,0-0.2,0c-0.3,0-0.6-0.1-0.8-0.1c0,0-0.1,0-0.1,0
	c-0.1,0-0.2,0-0.2,0c0,0,0,0-0.1,0h0C33.5,0.1,33.4,0.1,33.4,0.1c-0.1,0-0.2,0-0.3,0c-0.1,0-0.2,0-0.3,0c0.1,0,0.2,0,0.3,0
	C33.2,0.1,33.3,0.1,33.4,0.1z"/>
</svg>
