<?xml version="1.0" encoding="utf-8"?>
<!-- Generator: Adobe Illustrator 27.0.1, SVG Export Plug-In . SVG Version: 6.00 Build 0)  -->
<svg version="1.1" id="Layer_1" xmlns="http://www.w3.org/2000/svg" xmlns:xlink="http://www.w3.org/1999/xlink" x="0px" y="0px"
	 width="50px" height="46px" viewBox="0 0 50 46" style="enable-background:new 0 0 50 46;" xml:space="preserve">
<style type="text/css">
	.st0{fill:#FFFFFF;}
</style>
<path class="st0" d="M38.5,36.3C38.5,36.3,38.5,36.3,38.5,36.3c0,0-0.1,0-0.1,0c-0.1,0-0.1,0-0.2,0c0,0,0,0,0,0
	C38.3,36.2,38.4,36.2,38.5,36.3z M41.6,36c0.2,0,0.3-0.1,0.4-0.1C41.9,36,41.7,36,41.6,36z M38.5,36c-0.1,0-0.3-0.1-0.4-0.1
	c0,0.1,0,0.2,0,0.2c0.3,0.1,0.6,0.1,0.8,0.2c0.5,0.1,1,0.1,1.5,0l0.2,0c0.3,0,0.5-0.1,0.7-0.1c0.1,0,0.2,0,0.3-0.1
	c-0.4,0.1-0.8,0.1-1.3,0.1C39.7,36.2,39.1,36.1,38.5,36z M42,35.9C42,35.9,42,35.9,42,35.9L42,35.9C42.1,35.9,42.1,35.9,42,35.9
	C42.1,35.9,42.1,35.9,42,35.9z M38,34.9c0,0.1,0.1,0.3,0.1,0.4c1.7,0.8,4.1,1,6.5-0.6c0,0,0,0,0,0c0,0,0,0,0,0c0,0,0,0,0,0
	c0.2-0.1,0.3-0.2,0.4-0.3c0.1-0.1,0.3-0.3,0.6-0.6c0.1-0.1,0.2-0.2,0.3-0.3c0,0,0,0,0,0C44,35.5,40.9,36.3,38,34.9z M45.9,33.5
	c0.1-0.1,0.2-0.2,0.3-0.3C46,33.3,45.9,33.4,45.9,33.5z M47.3,30.9c-0.1,0.3-0.3,0.6-0.5,0.9c-0.2,0.3-0.4,0.5-0.7,0.8
	c-0.7,0.7-1.4,1.2-2.3,1.5c-0.8,0.3-1.7,0.5-2.6,0.5c-0.9,0-1.8-0.1-2.7-0.4c-0.3-0.1-0.6-0.3-1-0.4c0,0,0,0,0,0c0,0,0,0.1,0,0.1
	c0,0.1,0.1,0.3,0.1,0.4c0.2,0.1,0.5,0.2,0.7,0.3c0.9,0.3,1.7,0.5,2.6,0.5c0.9,0,1.8-0.2,2.6-0.5c0.8-0.3,1.6-0.8,2.2-1.5
	c0.2-0.2,0.3-0.4,0.5-0.5c0.1-0.2,0.3-0.4,0.4-0.6c0.1-0.2,0.2-0.4,0.3-0.6C47.3,31.3,47.4,31.1,47.3,30.9c0.1,0,0.1-0.1,0.2-0.2
	c0,0,0-0.1,0-0.1c0.1-0.2,0.1-0.5,0.2-0.7c0,0,0,0,0,0c0,0,0,0,0,0c0-0.1,0.1-0.3,0.1-0.4c0,0.2-0.1,0.3-0.1,0.5
	C47.6,30.3,47.5,30.6,47.3,30.9z M47.8,29.5c0-0.1,0.1-0.3,0.1-0.4c0,0,0,0,0-0.1c0,0,0,0,0,0C47.9,29.2,47.9,29.4,47.8,29.5z
	 M37.1,32.3c0.1,0.2,0.2,0.4,0.3,0.6c4.4,2.3,10.8-0.3,10.6-6l0-0.1c0-0.3-0.1-0.6-0.1-0.9c0-0.1,0-0.2,0-0.3c0,0.1,0,0.1,0,0.2
	C48.5,31.4,42.1,35,37.1,32.3z M47.2,26c-0.1,0.5-0.3,1-0.6,1.5c-0.3,0.5-0.7,1-1.1,1.4c-0.7,0.7-1.4,1.2-2.2,1.6
	c-0.8,0.4-1.7,0.7-2.6,0.8c-0.9,0.1-1.8,0.1-2.6-0.1c-0.6-0.1-1.2-0.3-1.7-0.6c0.1,0.2,0.2,0.5,0.3,0.7c0,0,0,0,0,0.1
	c0.5,0.3,1,0.5,1.6,0.6c0.8,0.2,1.7,0.2,2.6,0.2c0.9-0.1,1.8-0.3,2.6-0.7c0.8-0.4,1.6-0.9,2.2-1.6c0.4-0.4,0.8-0.9,1.1-1.4
	c0.3-0.5,0.5-1,0.6-1.5c0.1-0.5,0.2-1,0.2-1.5c0-0.5-0.1-0.9-0.2-1.4c0,0,0-0.1,0-0.1c0-0.1-0.1-0.2-0.1-0.2
	c-0.1-0.2-0.2-0.4-0.2-0.7c0.1,0.4,0.2,0.8,0.2,1.3C47.4,25,47.3,25.5,47.2,26z M46.3,22c0,0.5,0,1-0.1,1.5
	c-0.1,0.5-0.4,1.1-0.7,1.6c-0.3,0.5-0.7,1-1.2,1.5c-0.7,0.7-1.4,1.2-2.2,1.7c-0.8,0.4-1.7,0.8-2.5,0.9c-0.8,0.2-1.7,0.3-2.5,0.2
	c-0.6-0.1-1.2-0.2-1.8-0.5c0.1,0.1,0.1,0.2,0.2,0.3c0.1,0.2,0.2,0.3,0.3,0.5c0.5,0.3,1.1,0.4,1.8,0.5c0.8,0.1,1.7,0.1,2.5-0.1
	c0.9-0.2,1.7-0.5,2.5-0.9c0.8-0.4,1.6-1,2.2-1.6c0.5-0.5,0.9-1,1.2-1.5c0.3-0.5,0.5-1,0.7-1.6c0.1-0.5,0.2-1,0.1-1.5
	c0-0.4-0.1-0.8-0.3-1.2c0-0.1-0.1-0.1-0.1-0.2c-0.1-0.3-0.3-0.6-0.5-0.9c0,0,0,0.1,0,0.1C46.2,21.1,46.3,21.5,46.3,22z M44,22.4
	c-0.3,0.5-0.8,1.1-1.3,1.6c-0.7,0.7-1.4,1.2-2.2,1.7c-0.8,0.5-1.6,0.9-2.4,1.1c-0.8,0.3-1.6,0.4-2.3,0.4c-0.6,0-1.3-0.1-1.8-0.3
	c0.2,0.3,0.4,0.5,0.5,0.8c0.5,0.2,1.1,0.3,1.8,0.4c0.8,0,1.6-0.1,2.4-0.3c0.8-0.2,1.7-0.6,2.4-1.1c0.8-0.5,1.5-1,2.2-1.7
	c0.5-0.5,0.9-1,1.2-1.6c0.3-0.5,0.6-1.1,0.7-1.6c0.1-0.5,0.2-1,0.2-1.5c0-0.5-0.2-0.9-0.4-1.3l-0.5-0.8l0,0l-0.1-0.1c0,0,0,0,0,0
	c0.2,0.3,0.3,0.7,0.4,1.1c0,0.4,0,0.9-0.2,1.4C44.6,21.4,44.3,21.9,44,22.4z M42.1,19.7c-0.4,0.5-0.8,1-1.3,1.6
	c-0.7,0.7-1.4,1.3-2.1,1.8c-0.7,0.5-1.5,1-2.3,1.3c-0.7,0.3-1.5,0.6-2.1,0.7c-0.6,0.1-1.2,0.1-1.6,0c0,0,0.1,0.1,0.1,0.1
	c0.2,0.2,0.4,0.5,0.6,0.7c0.5,0.1,1.1,0.2,1.7,0.1c0.7-0.1,1.4-0.3,2.2-0.6c0.8-0.3,1.6-0.7,2.3-1.2c0.8-0.5,1.5-1.1,2.2-1.8
	c0.5-0.5,1-1.1,1.3-1.6c0.3-0.5,0.6-1,0.8-1.5c0.2-0.5,0.2-0.9,0.2-1.3c0-0.4-0.1-0.7-0.3-0.9c0,0,0-0.1-0.1-0.1l-0.2-0.3l-0.2-0.3
	L42.9,16c0.2,0.3,0.3,0.6,0.3,0.9c0,0.4-0.1,0.8-0.3,1.2C42.7,18.7,42.5,19.2,42.1,19.7z M40.8,15.5c-0.2,0.4-0.5,0.9-0.9,1.3
	c-0.4,0.5-0.9,1-1.4,1.5c-0.7,0.7-1.4,1.3-2.1,1.9c-0.7,0.6-1.4,1.1-2.1,1.5c-0.7,0.4-1.3,0.8-1.9,1c-0.6,0.2-1,0.3-1.4,0.3
	c0,0,0,0.1,0.1,0.1c0.2,0.2,0.4,0.5,0.6,0.7c0.4,0.1,0.9,0,1.5-0.2c0.6-0.2,1.3-0.5,2-0.9c0.7-0.4,1.5-0.9,2.2-1.4
	c0.7-0.6,1.4-1.2,2.1-1.8c0.5-0.5,1-1.1,1.4-1.6c0.4-0.5,0.7-1,0.9-1.4c0.2-0.4,0.3-0.8,0.4-1.1c0-0.3,0-0.6-0.2-0.8c0,0,0,0,0,0
	l-0.1-0.2l-0.1-0.1l-0.5-0.6c0.1,0.2,0.2,0.4,0.1,0.7C41.2,14.8,41,15.1,40.8,15.5z M29.6,21.6c0.1,0.1,0.3,0.3,0.4,0.4
	c0.3-0.1,0.7-0.3,1.2-0.5c0.5-0.3,1.1-0.7,1.8-1.2c0.6-0.5,1.3-1,2-1.6c0.7-0.6,1.4-1.2,2-1.9c0.5-0.5,1-1.1,1.4-1.5
	c0.4-0.5,0.7-0.9,1-1.3c0.3-0.4,0.4-0.7,0.5-0.9c0.1-0.2,0.1-0.4,0-0.5c0,0,0,0,0,0l0,0l-0.6-0.7l-0.2-0.2c0,0,0,0,0,0
	c0,0.1,0,0.2-0.1,0.4c-0.1,0.2-0.3,0.5-0.6,0.8c-0.3,0.3-0.6,0.8-1,1.2c-0.4,0.5-0.9,1-1.4,1.5c-0.7,0.7-1.3,1.3-2,1.9
	c-0.7,0.6-1.3,1.2-1.9,1.7c-0.6,0.5-1.2,0.9-1.6,1.3c-0.5,0.3-0.8,0.6-1.1,0.7c0,0,0,0,0.1,0.1c0,0,0.1,0.1,0.1,0.1c0,0,0,0,0,0
	L29.6,21.6z M28.2,20L28.2,20c1.6-1.5,9.3-9.2,9.8-9.7c0,0,0,0,0,0l0,0c-0.2-0.2-0.5-0.5-0.7-0.7c0,0-0.1-0.1-0.1-0.1l0,0
	c0,0,0,0,0,0c0,0-0.2,0-0.3,0.2c-0.2,0.1-0.5,0.4-0.8,0.6c-0.3,0.3-0.7,0.7-1.2,1.1c-0.4,0.4-1,0.9-1.5,1.5c-0.7,0.7-1.3,1.3-2,2
	c-0.6,0.7-1.2,1.3-1.8,1.9c-0.5,0.6-1,1.1-1.4,1.6c-0.4,0.4-0.6,0.8-0.8,1c0,0,0,0,0.1,0.1C27.6,19.5,27.9,19.8,28.2,20z M31.8,8.7
	c-0.5,0.4-1,0.9-1.5,1.4c-0.7,0.7-1.3,1.4-1.9,2.1c-0.6,0.7-1.1,1.4-1.6,2.1c-0.4,0.7-0.8,1.3-1.1,1.8c-0.3,0.5-0.4,1-0.4,1.3
	c0,0,0.1,0,0.1,0.1c0.2,0.2,0.5,0.5,0.8,0.7c0.1-0.3,0.3-0.7,0.6-1.2c0.3-0.5,0.7-1.1,1.2-1.7c0.5-0.6,1-1.3,1.6-2
	c0.6-0.7,1.2-1.4,1.9-2c0.5-0.5,1.1-1,1.5-1.4c0.5-0.4,0.9-0.7,1.3-1c0.4-0.3,0.7-0.4,0.9-0.5c0.2-0.1,0.4-0.1,0.5,0L35,7.5
	l-0.2-0.2c0,0,0,0,0,0c-0.1-0.1-0.3-0.1-0.6,0c-0.3,0.1-0.6,0.2-1,0.5C32.8,8,32.3,8.3,31.8,8.7z M26,18C26,18,26,18,26,18l-0.6-0.5
	c0,0,0,0,0,0L26,18C26,18,26,18,26,18z M23.6,15.9c0.2,0.1,0.4,0.3,0.5,0.4c0-0.4,0-0.9,0.2-1.5c0.2-0.6,0.5-1.3,0.9-2
	c0.4-0.7,0.9-1.4,1.4-2.2c0.6-0.7,1.2-1.4,1.8-2.1c0.5-0.5,1.1-1,1.6-1.4c0.5-0.4,1-0.7,1.4-0.9c0.4-0.2,0.8-0.3,1.1-0.4
	c0.3,0,0.6,0,0.8,0.2c0,0,0,0,0,0l-0.1-0.1l-0.9-0.7l-0.1-0.1c0,0,0,0,0,0c-0.2-0.2-0.5-0.2-0.8-0.2c-0.4,0-0.8,0.1-1.2,0.3
	c-0.4,0.2-0.9,0.5-1.4,0.8c-0.5,0.4-1,0.8-1.6,1.3C26.7,8.3,26,9,25.5,9.8c-0.5,0.7-1,1.5-1.4,2.2c-0.4,0.7-0.6,1.4-0.8,2.1
	c-0.1,0.6-0.2,1.1-0.1,1.6c0,0,0,0,0.1,0.1C23.4,15.8,23.5,15.9,23.6,15.9L23.6,15.9C23.7,16,23.6,16,23.6,15.9z M27.4,3.5
	c-0.5,0.2-1,0.4-1.5,0.7c-0.5,0.3-1,0.8-1.5,1.3c-0.7,0.7-1.2,1.4-1.7,2.2c-0.5,0.8-0.9,1.6-1.2,2.4c-0.3,0.8-0.4,1.6-0.5,2.3
	c0,0.6,0,1.2,0.2,1.8c0.2,0.1,0.3,0.2,0.4,0.3c0.1,0.1,0.3,0.2,0.4,0.3C22,14.3,21.9,13.7,22,13c0.1-0.7,0.3-1.4,0.6-2.2
	c0.3-0.8,0.7-1.6,1.2-2.3c0.5-0.8,1.1-1.5,1.8-2.2c0.5-0.5,1-1,1.6-1.3c0.5-0.3,1-0.6,1.5-0.8C29.1,4.1,29.5,4,29.9,4
	c0.4,0,0.8,0.1,1,0.3l-0.8-0.5L30,3.7c0,0-0.1,0-0.1-0.1c-0.3-0.2-0.7-0.3-1.1-0.3C28.4,3.3,27.9,3.4,27.4,3.5z M19.8,11.6
	c0-0.8,0.1-1.6,0.3-2.4c0.2-0.8,0.6-1.7,1-2.4c0.5-0.8,1-1.5,1.7-2.2c0.5-0.5,1-0.9,1.5-1.2c0.5-0.3,1-0.6,1.5-0.7
	c0.5-0.1,1-0.2,1.4-0.2c0.5,0,0.9,0.2,1.3,0.4c0,0,0,0,0,0l0,0l-0.9-0.5l-0.1,0c0,0,0,0,0,0c-0.4-0.2-0.8-0.3-1.3-0.4
	c-0.5,0-1,0-1.5,0.2c-0.5,0.1-1,0.4-1.5,0.7c-0.5,0.3-1,0.7-1.5,1.2c-0.7,0.7-1.2,1.4-1.7,2.2c-0.4,0.8-0.8,1.6-1,2.5
	c-0.2,0.8-0.3,1.7-0.2,2.5c0.1,0.7,0.2,1.3,0.5,1.8c0.3,0.2,0.5,0.3,0.8,0.5c0,0,0,0,0,0C19.9,12.8,19.8,12.2,19.8,11.6z M17.9,12
	c0.1,0.1,0.3,0.1,0.4,0.2c-0.3-0.5-0.5-1.1-0.5-1.8c-0.1-0.8-0.1-1.7,0.1-2.5C18,7,18.3,6.2,18.7,5.4c0.4-0.8,1-1.6,1.6-2.2
	c0.5-0.5,1-0.9,1.5-1.2c0.5-0.3,1-0.5,1.6-0.7c0.5-0.1,1-0.2,1.5-0.1c0.5,0,1,0.2,1.4,0.3c0,0,0,0,0,0l0,0l-0.7-0.3l-0.2-0.1
	c-0.1,0-0.1,0-0.2-0.1c-0.4-0.2-0.9-0.2-1.3-0.3c-0.5,0-1,0-1.5,0.2c-0.5,0.1-1,0.3-1.5,0.6c-0.5,0.3-1,0.7-1.5,1.1
	c-0.7,0.7-1.2,1.4-1.6,2.2c-0.4,0.8-0.7,1.7-0.8,2.6c-0.1,0.9-0.1,1.8,0,2.6c0.1,0.6,0.3,1.2,0.6,1.7C17.7,11.9,17.8,11.9,17.9,12
	C17.8,12,17.9,12,17.9,12L17.9,12z M16,11.1c0.2,0.1,0.3,0.2,0.5,0.2l0,0c0,0,0,0,0,0c0,0,0.1,0,0.1,0c-2.6-4.8,1.4-12.2,7.3-10.7
	c-0.3-0.1-0.6-0.2-0.9-0.3c0,0-0.1,0-0.1,0c0,0-0.1,0-0.1,0c-0.1,0-0.3-0.1-0.4-0.1C17.4-0.4,13.2,5.8,16,11.1z M15.8,1.9
	c-0.7,0.7-1.2,1.4-1.5,2.3c-0.3,0.8-0.5,1.7-0.6,2.6c0,0.9,0.1,1.8,0.4,2.7c0.1,0.4,0.3,0.7,0.5,1.1c0.1,0,0.1,0,0.2,0.1
	c0.1,0,0.3,0.1,0.4,0.2c-2.3-4.4,0.3-10.9,6-10.7c0,0,0,0,0,0l0,0l-0.3,0l0,0c0,0,0,0,0,0c-0.3,0-0.7,0-1,0c-0.4,0-0.7,0.1-1.1,0.2
	c-0.4,0.1-0.7,0.2-1.1,0.4c-0.3,0.2-0.7,0.3-1,0.6C16.4,1.3,16.1,1.6,15.8,1.9z M12.6,7c0,0.9,0.2,1.8,0.5,2.6
	c0.1,0.2,0.1,0.3,0.2,0.5c0.2,0,0.3,0.1,0.5,0.1c-2-3.8-0.4-8.4,3.8-9.8c0,0,0,0,0,0c0,0,0,0,0,0c-0.3,0.1-0.8,0.3-1.1,0.4
	c-0.2,0.1-0.4,0.2-0.6,0.3c0,0,0,0,0,0c0,0,0,0,0,0c-0.1,0.1-0.2,0.1-0.3,0.2c-0.1,0.1-0.2,0.2-0.3,0.2c-0.1,0.1-0.2,0.2-0.3,0.3
	c-0.1,0.1-0.2,0.2-0.3,0.3c-0.7,0.7-1.2,1.4-1.5,2.2C12.8,5.2,12.6,6.1,12.6,7z M12.4,9.9c0.1,0,0.3,0,0.4,0.1
	c-1-2.3-0.7-4.8,0.9-6.9l-0.3,0.4c0,0,0,0,0,0.1C13.2,3.8,13.1,3.9,13,4c-0.1,0.1-0.2,0.3-0.4,0.7c0,0,0,0,0,0l0,0l-0.1,0.1
	c-0.3,0.6-0.5,1.3-0.5,2c-0.1,0.7,0,1.4,0.1,2C12.2,9.2,12.3,9.6,12.4,9.9z M11.9,9.9C11.9,9.9,11.9,9.9,11.9,9.9c0.1,0,0.1,0,0.2,0
	c-0.1-0.4-0.2-0.7-0.2-1.1c0-0.5,0-0.9,0-1.4c0,0,0-0.1,0-0.1l0,0.1c0,0.2,0,0.4-0.1,0.5c0,0.1,0,0.3,0,0.7c0,0.1,0,0.1,0,0.2
	c0,0.2,0,0.3,0,0.5C11.8,9.5,11.8,9.7,11.9,9.9z M4.6,24.9C4.6,24.9,4.6,24.9,4.6,24.9c0-0.1,0-0.1,0-0.1c0,0,0,0,0,0c0,0,0,0,0,0
	c0,0,0-0.1,0-0.1c0,0,0,0,0,0c0,0,0,0,0,0c0,0,0-0.1,0-0.1c0,0,0,0,0,0c0,0,0,0,0,0c0,0,0-0.1,0-0.1C4.2,24.2,4,24,3.8,23.7
	c-0.2-0.2-0.4-0.4-0.6-0.7c-0.2-0.2-0.3-0.5-0.4-0.7c-0.1-0.2-0.2-0.4-0.3-0.7c0.1,0.3,0.2,0.6,0.3,0.9c0,0.1,0,0.1,0.1,0.2
	C3.4,23.9,4.1,24.5,4.6,24.9z M5.3,26.5C5.3,26.5,5.3,26.5,5.3,26.5c0-0.1-0.1-0.1-0.1-0.2c0,0,0,0,0,0c0,0,0,0,0,0
	c0,0,0-0.1-0.1-0.1c0,0,0,0,0,0c0,0,0,0,0,0c0,0,0-0.1-0.1-0.1c0,0,0,0,0,0c0,0,0,0,0,0c0,0,0-0.1-0.1-0.1c0,0,0,0,0,0
	c-1-0.7-1.3-1.2-1.6-1.8c0,0,0,0,0,0c0.1,0.3,0.3,0.7,0.5,1C3.9,25,4,25.1,4,25.2c0,0.1,0.1,0.1,0.1,0.2c0.1,0.1,0.2,0.3,0.3,0.4
	c0.1,0.1,0.3,0.3,0.4,0.4C5,26.3,5.2,26.4,5.3,26.5z M6.3,28.1C6.3,28.1,6.3,28.1,6.3,28.1C6.2,28.1,6.2,28,6.2,28
	c0,0-0.1-0.1-0.1-0.1c0,0,0,0,0,0c0,0,0,0,0,0c0,0,0,0,0,0c0,0-0.1-0.1-0.1-0.1c0,0,0,0,0,0c0,0,0,0,0,0c0-0.1-0.1-0.1-0.1-0.2
	c0,0,0,0,0,0c-0.1-0.1-0.3-0.2-0.4-0.2c-0.1-0.1-0.2-0.2-0.3-0.3c-0.1-0.1-0.2-0.2-0.3-0.3c-0.1-0.1-0.1-0.2-0.2-0.2l0.5,0.8l0,0.1
	c0,0,0,0,0,0c0.1,0.1,0.1,0.2,0.2,0.3c0.1,0.1,0.2,0.2,0.3,0.3C5.8,27.9,5.9,27.9,6,28C6.1,28.1,6.2,28.2,6.3,28.1
	C6.3,28.2,6.3,28.2,6.3,28.1z M7.5,29.9C7.4,29.9,7.4,29.9,7.5,29.9c-0.1-0.1-0.1-0.1-0.2-0.2c0,0,0,0,0,0c0,0,0,0,0-0.1
	c0,0-0.1-0.1-0.1-0.1c0,0,0,0,0-0.1c0,0,0,0,0-0.1c0,0,0,0,0-0.1c-0.1,0-0.2-0.1-0.3-0.1c-0.1-0.1-0.2-0.1-0.3-0.2
	c-0.1-0.1-0.2-0.1-0.2-0.2c-0.1-0.1-0.1-0.1-0.2-0.2c0,0,0,0,0,0l0,0l0.6,0.9c0,0.1,0.1,0.1,0.2,0.2c0.1,0.1,0.1,0.1,0.2,0.2
	c0.1,0.1,0.2,0.1,0.2,0.1C7.4,30,7.5,30,7.6,30C7.5,30,7.5,30,7.5,29.9C7.5,29.9,7.5,29.9,7.5,29.9z M8.9,31.7
	C8.9,31.7,8.9,31.7,8.9,31.7c-0.1-0.1-0.1-0.1-0.1-0.2c0,0,0,0,0-0.1c0,0,0,0-0.1-0.1c0,0,0,0-0.1-0.1c0,0-0.1-0.1-0.1-0.1
	c0,0,0,0,0-0.1c0,0,0,0,0,0c-0.1,0-0.2,0-0.2-0.1C8.1,31.1,8.1,31,8,31c-0.1,0-0.1-0.1-0.2-0.1c0,0,0,0-0.1-0.1c0,0,0,0-0.1-0.1
	L8,31.1l0.5,0.6l0,0c0,0,0,0,0,0c0.2,0.2,0.4,0.2,0.6,0.3C9,31.9,9,31.8,8.9,31.7C8.9,31.7,8.9,31.7,8.9,31.7z M10.7,33.8
	c0,0-0.1-0.1-0.1-0.1c0,0,0,0-0.1-0.1c0,0,0,0-0.1-0.1c0,0,0,0-0.1-0.1c0,0-0.1-0.1-0.1-0.1c0,0,0,0-0.1-0.1c0,0,0,0,0,0
	c-0.1-0.1-0.1-0.1-0.2-0.2c-0.1,0-0.1,0-0.2,0c-0.1,0-0.1,0-0.1,0c0,0-0.1,0-0.1,0c0,0,0,0-0.1-0.1c0,0,0,0,0,0l0.6,0.7l0.2,0.2
	c0,0,0,0,0.1,0c0,0,0.1,0,0.1,0S10.6,33.9,10.7,33.8C10.6,33.9,10.7,33.9,10.7,33.8C10.7,33.9,10.7,33.9,10.7,33.8
	C10.7,33.8,10.7,33.8,10.7,33.8z M12.4,35.6C12.4,35.6,12.4,35.6,12.4,35.6c-0.1-0.1-0.1-0.1-0.2-0.2c0,0,0,0-0.1-0.1c0,0,0,0,0,0
	c-0.1-0.1-0.1-0.1-0.2-0.2c0,0,0,0,0,0c0,0,0,0,0,0c0,0-0.1-0.1-0.1-0.1c0,0-0.1,0-0.1,0.1c0,0-0.1,0-0.1,0c0,0,0,0-0.1,0
	c0,0,0,0,0,0c0,0,0,0,0,0l0.4,0.4l0.4,0.5c0,0,0,0,0,0c0,0,0,0,0,0c0,0,0,0,0.1-0.1c0,0,0-0.1,0.1-0.1
	C12.5,35.7,12.5,35.7,12.4,35.6C12.5,35.7,12.4,35.7,12.4,35.6z M14.5,38C14.5,37.9,14.5,37.9,14.5,38c0-0.1,0-0.2,0-0.2
	c0,0,0-0.1,0-0.1c0,0-0.1-0.1-0.1-0.1c0,0,0,0-0.1-0.1c0,0,0,0,0,0c-0.1-0.1-0.1-0.1-0.2-0.2c0,0,0,0,0,0c0,0,0,0,0,0
	c-0.1,0-0.1-0.1-0.2-0.1c0,0,0,0-0.1,0c0,0-0.1,0-0.1-0.1c0,0-0.1,0-0.1-0.1c0,0,0,0.1,0,0.1c0,0,0,0.1,0,0.1c0,0,0,0.1,0,0.1
	c0,0,0,0,0,0c0,0,0,0,0,0l0.1,0.1l0.1,0.1l0,0l0,0l0.5,0.4L14.5,38C14.5,38,14.5,38,14.5,38C14.5,38,14.5,38,14.5,38z M16.7,39.8
	c0,0-0.1-0.1-0.1-0.2c0-0.1-0.1-0.1-0.1-0.2c0-0.1,0-0.1-0.1-0.2c-0.1-0.1-0.1-0.1-0.2-0.2c0,0,0,0,0,0c0,0,0,0,0,0
	c-0.1,0-0.1-0.1-0.2-0.1c0,0,0,0-0.1,0c0,0-0.1,0-0.1-0.1c0,0-0.1,0-0.1-0.1c0,0-0.1-0.1-0.1-0.1c0,0,0,0-0.1-0.1c0,0,0,0,0,0
	c0,0.1,0,0.1,0,0.2c0,0.1,0,0.1,0,0.2c0,0,0,0.1,0.1,0.1c0,0,0.1,0.1,0.1,0.1c0,0,0,0,0,0l0.1,0.1l0.2,0.2l0.7,0.5
	C16.8,40,16.8,39.9,16.7,39.8C16.7,39.9,16.7,39.9,16.7,39.8z M19.1,41.7C19.2,41.8,19.2,41.8,19.1,41.7
	C19.2,41.8,19.2,41.8,19.1,41.7L19.1,41.7C19.1,41.7,19.1,41.7,19.1,41.7z M18.8,41.4c-0.1-0.1-0.1-0.2-0.2-0.3
	c-0.1-0.1-0.1-0.2-0.1-0.3c0,0,0,0-0.1,0c0,0-0.1-0.1-0.1-0.1c0,0,0,0,0,0c0,0,0,0-0.1,0c0,0-0.1-0.1-0.1-0.1c0,0,0,0,0,0
	c0,0,0,0,0,0c0,0-0.1-0.1-0.1-0.1c0,0,0,0-0.1,0c0,0,0,0,0,0c0,0-0.1-0.1-0.1-0.1c0,0,0,0-0.1,0c0,0.1,0.1,0.2,0.1,0.3
	c0,0.1,0.1,0.2,0.1,0.2c0,0.1,0.1,0.1,0.2,0.2c0.1,0.1,0.1,0.1,0.2,0.2l0.9,0.7c0,0-0.1-0.1-0.1-0.1C18.9,41.5,18.9,41.5,18.8,41.4z
	 M21.2,43.1c-0.1-0.1-0.2-0.2-0.3-0.3c-0.1-0.1-0.2-0.2-0.3-0.3c-0.1-0.1-0.2-0.3-0.3-0.4c0,0,0,0-0.1,0c0,0-0.1,0-0.1-0.1
	c0,0,0,0,0,0c0,0,0,0-0.1,0c0,0-0.1,0-0.1-0.1c0,0,0,0,0,0c0,0,0,0,0,0c0,0-0.1,0-0.1-0.1c0,0,0,0,0,0c0,0,0,0,0,0
	c0,0-0.1,0-0.1-0.1c0,0,0,0,0,0c0.1,0.1,0.1,0.3,0.2,0.4c0.1,0.1,0.2,0.2,0.2,0.3c0.1,0.1,0.2,0.2,0.3,0.3c0,0,0,0,0.1,0.1
	c0.1,0.1,0.2,0.1,0.2,0.2L21.2,43.1C21.3,43.2,21.3,43.2,21.2,43.1C21.3,43.1,21.2,43.1,21.2,43.1z M22.8,43.9
	c-0.2-0.1-0.3-0.3-0.4-0.4c-0.1-0.2-0.3-0.3-0.4-0.5c0,0,0,0-0.1,0c0,0-0.1,0-0.1,0c0,0,0,0,0,0c0,0,0,0-0.1,0c0,0-0.1,0-0.1,0
	c0,0,0,0,0,0c0,0,0,0,0,0c0,0-0.1,0-0.1,0c0,0,0,0,0,0c0,0,0,0,0,0c0,0-0.1,0-0.1,0c0,0,0,0,0,0c0.1,0.2,0.2,0.3,0.3,0.5
	c0.1,0.1,0.2,0.3,0.4,0.4c0.1,0.1,0.3,0.2,0.4,0.3c0.1,0,0.1,0.1,0.2,0.1c0.1,0.1,0.2,0.1,0.3,0.1l0.1,0l0.5,0.3
	c-0.1,0-0.1-0.1-0.2-0.1C23.1,44.2,23,44,22.8,43.9z M23.6,44.5c0.1,0,0.1,0.1,0.2,0.1c0,0,0,0,0,0l-0.3-0.2
	C23.5,44.4,23.6,44.4,23.6,44.5z M26.1,45.5c-0.1,0-0.2-0.1-0.3-0.1C25.9,45.4,26,45.4,26.1,45.5z M24.7,44.8
	c-0.2-0.2-0.4-0.3-0.6-0.5c-0.2-0.2-0.4-0.4-0.6-0.7c0,0,0,0,0,0c0,0-0.1,0-0.1,0c0,0,0,0,0,0c0,0,0,0,0,0c0,0-0.1,0-0.1,0
	c0,0,0,0,0,0c0,0,0,0,0,0c0,0-0.1,0-0.1,0c0,0,0,0,0,0c0,0,0,0,0,0c0,0-0.1,0-0.1,0c0,0,0,0,0,0c0.1,0.2,0.3,0.4,0.5,0.6
	c0.2,0.2,0.3,0.3,0.5,0.5c0.2,0.1,0.4,0.3,0.6,0.4c0.2,0.1,0.3,0.2,0.5,0.3c0,0,0.1,0,0.1,0c0.1,0,0.2,0.1,0.3,0.1
	c0.1,0,0.3,0.1,0.4,0.1c-0.1-0.1-0.3-0.1-0.4-0.2C25.1,45,24.9,44.9,24.7,44.8z M26.6,45.4c-0.4-0.2-0.7-0.4-1-0.7
	c-0.3-0.3-0.6-0.6-0.9-0.9c0,0,0,0,0,0c0,0,0,0-0.1,0c0,0,0,0,0,0c0,0,0,0,0,0c0,0,0,0-0.1,0c0,0,0,0,0,0c0,0,0,0,0,0c0,0,0,0-0.1,0
	c0,0,0,0,0,0c0,0,0,0,0,0c0,0,0,0-0.1,0c0,0,0,0,0,0c0.2,0.3,0.5,0.5,0.7,0.8c0.3,0.2,0.5,0.4,0.8,0.6c0.3,0.2,0.6,0.3,0.9,0.4
	c0.3,0.1,0.6,0.2,0.9,0.3c0.2,0,0.5,0.1,0.7,0.1c-0.2,0-0.4-0.1-0.6-0.1C27.3,45.7,26.9,45.5,26.6,45.4z M28.3,45.9
	c0.1,0,0.2,0,0.3,0c0.1,0,0.1,0,0.2,0c0,0,0,0,0,0C28.6,46,28.4,46,28.3,45.9z M31.8,45.8c0.2,0,0.3-0.1,0.4-0.1
	C32.1,45.7,32,45.8,31.8,45.8z M28.8,45.7c-0.6-0.2-1.2-0.4-1.7-0.7c-0.5-0.3-1-0.7-1.5-1.2c0,0,0,0,0,0c0,0,0,0,0,0c0,0,0,0,0,0
	c0,0,0,0,0,0c0,0,0,0,0,0c0,0,0,0,0,0c0,0,0,0,0,0c0,0,0,0,0,0c0,0,0,0,0,0c0,0,0,0,0,0c0,0,0,0,0,0c0,0,0,0,0,0
	c0.4,0.4,0.8,0.8,1.2,1.1c0.4,0.3,0.9,0.5,1.4,0.7s1,0.3,1.5,0.4c0.5,0.1,1,0.1,1.5,0l0.2,0c0.3,0,0.5-0.1,0.7-0.1
	c0.1,0,0.2,0,0.3-0.1c-0.4,0.1-0.8,0.1-1.3,0.1C30,45.9,29.4,45.9,28.8,45.7z M32.3,45.7C32.3,45.7,32.3,45.7,32.3,45.7L32.3,45.7
	C32.3,45.7,32.3,45.7,32.3,45.7C32.3,45.7,32.3,45.7,32.3,45.7z M26.2,43.3C26.2,43.3,26.2,43.3,26.2,43.3
	C26.2,43.4,26.2,43.4,26.2,43.3C26.2,43.4,26.1,43.4,26.2,43.3C26.1,43.4,26.1,43.4,26.2,43.3C26.1,43.4,26.1,43.4,26.2,43.3
	c-0.1,0.1-0.1,0.1-0.1,0.1c0,0,0,0,0,0c0,0,0,0,0,0c0,0,0,0,0,0c0,0,0,0,0,0c0,0,0,0,0,0c0,0,0,0,0,0c0,0,0,0,0,0c0,0,0,0,0,0
	c1.5,1.5,5,3.4,8.8,0.9c0,0,0,0,0,0c0,0,0,0,0,0c0,0,0,0,0,0c0.2-0.1,0.3-0.2,0.4-0.3c0.1-0.1,0.3-0.3,0.6-0.6
	c0.1-0.1,0.2-0.2,0.3-0.3c0,0,0,0,0,0C33.8,45.7,29.6,46.4,26.2,43.3z M36.1,43.3c0.1-0.1,0.2-0.2,0.3-0.3
	C36.3,43.1,36.2,43.2,36.1,43.3z M37.6,40.7c-0.1,0.3-0.3,0.6-0.5,0.9c-0.2,0.3-0.4,0.5-0.7,0.8c-0.7,0.7-1.4,1.2-2.3,1.5
	c-0.8,0.3-1.7,0.5-2.6,0.5c-0.9,0-1.8-0.1-2.7-0.4c-0.9-0.3-1.7-0.8-2.4-1.4c0,0,0,0,0,0c0,0,0,0.1,0,0.1c0,0,0,0,0,0c0,0,0,0,0,0
	c0,0,0,0.1,0,0.1c0,0,0,0,0,0c0,0,0,0,0,0c0,0,0,0,0,0.1c0,0,0,0,0,0c0,0,0,0,0,0c0,0,0,0,0,0.1c0,0,0,0,0,0
	c0.7,0.7,1.5,1.1,2.4,1.5c0.9,0.3,1.7,0.5,2.6,0.5c0.9,0,1.8-0.2,2.6-0.5c0.8-0.3,1.6-0.8,2.2-1.5c0.2-0.2,0.3-0.4,0.5-0.5
	c0.1-0.2,0.3-0.4,0.4-0.6c0.1-0.2,0.2-0.4,0.3-0.6C37.5,41,37.6,40.9,37.6,40.7c0.1,0,0.1-0.1,0.2-0.2c0,0,0-0.1,0-0.1
	c0.1-0.2,0.1-0.5,0.2-0.7c0,0,0,0,0,0c0,0,0,0,0,0c0-0.1,0.1-0.3,0.1-0.4c0,0.2-0.1,0.3-0.1,0.5C37.8,40.1,37.7,40.4,37.6,40.7z
	 M38.1,39.3c0-0.1,0.1-0.3,0.1-0.4c0,0,0,0,0-0.1c0,0,0,0,0,0C38.1,39,38.1,39.1,38.1,39.3z M38.1,35.7c0-0.1,0-0.2,0-0.3
	C38.1,35.5,38.1,35.6,38.1,35.7c0.7,5.8-6.6,9.5-11.7,5.8c0,0,0,0,0,0c0,0,0,0.1,0,0.1c0,0,0,0,0,0c0,0,0,0,0,0c0,0,0,0.1,0,0.1
	c0,0,0,0,0,0c0,0,0,0,0,0c0,0,0,0.1,0,0.1c0,0,0,0,0,0c0,0,0,0,0,0c0,0,0,0.1,0,0.1c0,0,0,0,0,0c4.3,3.5,11.9,1,11.7-5.3l0-0.1
	C38.2,36.4,38.1,36,38.1,35.7z M37.6,33.8c0-0.1,0-0.1-0.1-0.2c-0.1-0.2-0.2-0.4-0.2-0.7c0.1,0.4,0.2,0.8,0.2,1.3c0,0.5,0,1-0.2,1.5
	c-0.1,0.5-0.3,1-0.6,1.5c-0.3,0.5-0.7,1-1.1,1.4c-0.7,0.7-1.4,1.2-2.2,1.6c-0.8,0.4-1.7,0.7-2.6,0.8c-0.9,0.1-1.8,0.1-2.6-0.1
	c-0.8-0.2-1.6-0.5-2.3-1c0,0,0,0,0,0c0,0,0,0.1,0.1,0.1c0,0,0,0,0,0c0,0,0,0,0,0c0,0,0,0.1,0,0.1c0,0,0,0,0,0c0,0,0,0,0,0
	c0,0,0,0.1,0,0.1c0,0,0,0,0,0c0,0,0,0,0,0c0,0,0,0.1,0,0.1c0,0,0,0,0,0c0.7,0.5,1.5,0.9,2.3,1.1c0.8,0.2,1.7,0.2,2.6,0.2
	c0.9-0.1,1.8-0.3,2.6-0.7c0.8-0.4,1.6-0.9,2.2-1.6c0.4-0.4,0.8-0.9,1.1-1.4c0.3-0.5,0.5-1,0.6-1.5c0.1-0.5,0.2-1,0.2-1.5
	c0-0.5-0.1-0.9-0.2-1.4C37.7,33.9,37.7,33.9,37.6,33.8C37.7,33.8,37.6,33.8,37.6,33.8z M36.3,30.7c0-0.1-0.1-0.2-0.1-0.2
	c0,0,0,0.1,0,0.1c0.2,0.4,0.3,0.8,0.3,1.2c0,0.5,0,1-0.1,1.5c-0.1,0.5-0.4,1.1-0.7,1.6c-0.3,0.5-0.7,1-1.2,1.5
	c-0.7,0.7-1.4,1.2-2.2,1.7c-0.8,0.4-1.7,0.8-2.5,0.9c-0.8,0.2-1.7,0.3-2.5,0.2c-0.8-0.1-1.5-0.3-2.2-0.7c0,0,0,0,0,0
	c0,0,0,0.1,0.1,0.1c0,0,0,0,0,0c0,0,0,0,0,0c0,0.1,0.1,0.1,0.1,0.2c0,0,0,0,0,0c0,0,0,0,0,0c0,0,0,0.1,0.1,0.1c0,0,0,0,0,0
	c0,0,0,0,0,0c0,0.1,0.1,0.1,0.1,0.2c0,0,0,0,0,0c0.7,0.4,1.4,0.7,2.2,0.8c0.8,0.1,1.7,0.1,2.5-0.1c0.9-0.2,1.7-0.5,2.5-0.9
	s1.6-1,2.2-1.6c0.5-0.5,0.9-1,1.2-1.5c0.3-0.5,0.5-1,0.7-1.6c0.1-0.5,0.2-1,0.1-1.5c0-0.4-0.1-0.8-0.3-1.2c0,0,0-0.1-0.1-0.1
	c0,0,0,0,0-0.1C36.6,31.1,36.4,30.9,36.3,30.7z M24.2,36.9C24.2,36.9,24.2,36.9,24.2,36.9c0.1,0.1,0.1,0.2,0.1,0.2c0,0,0,0,0,0
	c0,0,0,0,0,0c0,0,0.1,0.1,0.1,0.1c0,0,0,0,0,0c0,0,0,0,0,0.1c0,0,0,0,0,0.1c0.6,0.3,1.3,0.5,2,0.5c0.8,0,1.6-0.1,2.4-0.3
	c0.8-0.2,1.7-0.6,2.4-1.1c0.8-0.5,1.5-1,2.2-1.7c0.5-0.5,0.9-1,1.2-1.6c0.3-0.5,0.6-1.1,0.7-1.6c0.1-0.5,0.2-1,0.2-1.5
	c0-0.5-0.2-0.9-0.4-1.3l-0.5-0.8l0,0l-0.1-0.1c0,0,0,0,0,0c0.2,0.3,0.3,0.7,0.4,1.1c0,0.4,0,0.9-0.2,1.4c-0.2,0.5-0.4,1-0.7,1.5
	c-0.3,0.5-0.8,1.1-1.3,1.6c-0.7,0.7-1.4,1.2-2.2,1.7c-0.8,0.5-1.6,0.9-2.4,1.1c-0.8,0.3-1.6,0.4-2.3,0.4c-0.7,0-1.4-0.1-2-0.3
	C24.1,36.7,24.2,36.8,24.2,36.9C24.2,36.8,24.2,36.8,24.2,36.9z M22.9,35C22.9,35,23,35,22.9,35c0.1,0.1,0.1,0.1,0.1,0.2
	c0,0,0,0,0,0c0,0,0,0,0.1,0.1c0,0,0,0,0.1,0.1c0,0,0,0.1,0.1,0.1c0,0,0,0,0,0.1c0,0,0,0,0,0c0.5,0.2,1.1,0.2,1.8,0.1
	c0.7-0.1,1.4-0.3,2.2-0.6c0.8-0.3,1.6-0.7,2.3-1.2c0.8-0.5,1.5-1.1,2.2-1.8c0.5-0.5,1-1.1,1.3-1.6c0.3-0.5,0.6-1,0.8-1.5
	c0.2-0.5,0.2-0.9,0.2-1.3c0-0.4-0.1-0.7-0.3-0.9c0,0,0-0.1-0.1-0.1l-0.2-0.3l-0.2-0.3l-0.3-0.4c0.2,0.3,0.3,0.6,0.3,0.9
	c0,0.4-0.1,0.8-0.3,1.2c-0.2,0.5-0.5,0.9-0.8,1.5c-0.4,0.5-0.8,1-1.3,1.6c-0.7,0.7-1.4,1.3-2.1,1.8c-0.7,0.5-1.5,1-2.3,1.3
	c-0.7,0.3-1.5,0.6-2.1,0.7c-0.7,0.1-1.2,0.1-1.7,0C22.8,34.9,22.9,34.9,22.9,35C22.9,35,22.9,35,22.9,35z M31.1,25.3
	c-0.2,0.4-0.5,0.9-0.9,1.3c-0.4,0.5-0.9,1-1.4,1.5c-0.7,0.7-1.4,1.3-2.1,1.9c-0.7,0.6-1.4,1.1-2.1,1.5c-0.7,0.4-1.3,0.8-1.9,1
	c-0.6,0.2-1.1,0.4-1.4,0.3c0,0,0,0,0,0c0,0,0,0,0,0c0,0.1,0.1,0.1,0.1,0.2c0,0,0,0,0,0c0,0,0,0.1,0.1,0.1c0,0,0,0.1,0.1,0.1
	c0,0,0.1,0.1,0.1,0.1c0,0,0,0,0.1,0.1c0,0,0,0,0,0c0.1,0.1,0.1,0.1,0.2,0.2c0.4,0.1,1,0,1.6-0.2c0.6-0.2,1.3-0.5,2-0.9
	c0.7-0.4,1.5-0.9,2.2-1.4c0.7-0.6,1.4-1.2,2.1-1.8c0.5-0.5,1-1.1,1.4-1.6c0.4-0.5,0.7-1,0.9-1.4c0.2-0.4,0.3-0.8,0.4-1.1
	c0-0.3,0-0.6-0.2-0.8c0,0,0,0,0,0L32,24.3l-0.1-0.1l-0.5-0.6c0.1,0.2,0.2,0.4,0.1,0.7C31.4,24.5,31.3,24.9,31.1,25.3z M19.7,31.1
	C19.7,31.2,19.7,31.2,19.7,31.1c0.1,0.1,0.1,0.1,0.2,0.2c0,0,0,0,0,0c0.1,0.1,0.1,0.1,0.2,0.2c0,0,0,0,0,0c0,0,0,0,0,0
	c0.1,0.1,0.1,0.1,0.2,0.2c0.3-0.1,0.7-0.3,1.3-0.5c0.5-0.3,1.1-0.7,1.8-1.2c0.6-0.5,1.3-1,2-1.6c0.7-0.6,1.4-1.2,2-1.9
	c0.5-0.5,1-1.1,1.4-1.5c0.4-0.5,0.7-0.9,1-1.3c0.3-0.4,0.4-0.7,0.5-0.9c0.1-0.2,0.1-0.4,0-0.5c0,0,0,0,0,0l0,0l-0.6-0.7l-0.2-0.2
	c0,0,0,0,0,0c0,0,0,0,0,0c0,0.1,0,0.2-0.1,0.4c-0.1,0.2-0.3,0.5-0.6,0.8c-0.3,0.3-0.6,0.8-1,1.2c-0.1,0.1-0.2,0.2-0.3,0.3
	c-0.3,0.4-0.7,0.8-1.1,1.2c-0.2,0.2-0.5,0.5-0.7,0.7c-0.4,0.4-0.9,0.8-1.3,1.2c-0.1,0.1-0.3,0.3-0.4,0.4c0,0,0,0-0.1,0.1
	c-0.2,0.2-0.4,0.3-0.6,0.5c-0.3,0.3-0.6,0.5-0.9,0.7c-0.1,0.1-0.2,0.2-0.3,0.2c-0.1,0.1-0.3,0.2-0.4,0.3c-0.3,0.3-0.7,0.5-0.9,0.7
	c-0.2,0.1-0.4,0.3-0.6,0.4c-0.2,0.1-0.4,0.3-0.6,0.3c0,0,0,0,0,0C19.5,31,19.6,31,19.7,31.1C19.6,31.1,19.6,31.1,19.7,31.1z
	 M17.8,29.2C17.8,29.2,17.8,29.2,17.8,29.2c0.1,0.1,0.2,0.2,0.2,0.2l0,0c0,0,0.1,0.1,0.1,0.1c0,0,0.1,0.1,0.1,0.1c0,0,0,0,0,0
	c0,0,0,0,0.1,0.1l0.1,0.1c1.6-1.5,9.3-9.2,9.8-9.7c0,0,0,0,0,0l0,0l0,0c-0.2-0.2-0.5-0.5-0.7-0.7c0,0,0,0-0.1-0.1c0,0,0,0-0.1-0.1
	l0,0c0,0,0,0,0,0c0,0-0.2,0-0.3,0.2c-0.2,0.1-0.5,0.4-0.8,0.6c-0.3,0.3-0.7,0.7-1.2,1.1c-0.4,0.4-1,0.9-1.5,1.5
	c-0.7,0.7-1.3,1.3-2,2c-0.6,0.7-1.2,1.3-1.8,1.9c-0.5,0.6-1,1.1-1.4,1.6c-0.4,0.4-0.6,0.8-0.8,1C17.6,29.1,17.7,29.1,17.8,29.2
	C17.7,29.1,17.7,29.2,17.8,29.2z M18.2,25c0.5-0.6,1-1.3,1.6-2c0.1-0.2,0.3-0.3,0.4-0.5c0.4-0.4,0.8-0.8,1.1-1.2
	c0.1-0.1,0.2-0.2,0.3-0.3c0.5-0.5,1.1-1,1.5-1.4c0.2-0.2,0.4-0.3,0.5-0.5c0.3-0.2,0.5-0.4,0.7-0.5c0.1-0.1,0.2-0.2,0.3-0.2
	c0.2-0.1,0.4-0.2,0.6-0.3c0.2-0.1,0.3-0.1,0.4-0.1c0,0,0,0,0,0c0,0,0,0,0.1,0c0,0,0,0,0,0l-0.6-0.5l-0.2-0.1L25,17.1c0,0,0,0,0,0
	c-0.1-0.1-0.3-0.1-0.6,0c-0.3,0.1-0.6,0.2-1,0.5c-0.4,0.2-0.8,0.6-1.3,1c-0.5,0.4-1,0.9-1.5,1.4c-0.7,0.7-1.3,1.4-1.9,2.1
	c-0.6,0.7-1.1,1.4-1.6,2.1c-0.4,0.7-0.8,1.3-1.1,1.8c-0.3,0.5-0.4,1-0.4,1.4c0.1,0.1,0.1,0.1,0.2,0.2c0,0,0,0,0,0c0,0,0,0,0,0
	c0,0,0,0,0,0c0.1,0.1,0.1,0.1,0.2,0.2c0,0,0,0,0,0c0,0,0.1,0,0.1,0.1c0,0,0.1,0.1,0.1,0.1c0,0,0.1,0.1,0.1,0.1c0,0,0.1,0,0.1,0.1
	c0,0,0,0,0,0c0-0.1,0.1-0.2,0.1-0.4c0.1-0.2,0.2-0.5,0.4-0.8c0,0,0.1-0.1,0.1-0.1c0.2-0.3,0.4-0.7,0.7-1.1
	C18,25.4,18.1,25.2,18.2,25z M18.8,18.4c0.5-0.5,1.1-1,1.6-1.4c0.5-0.4,1-0.7,1.4-0.9c0.4-0.2,0.8-0.3,1.1-0.4c0.3,0,0.6,0,0.8,0.2
	c0,0,0,0,0,0l-0.1-0.1l-0.9-0.7l-0.1-0.1c0,0,0,0,0,0c-0.2-0.2-0.5-0.2-0.8-0.2c-0.4,0-0.8,0.1-1.2,0.3c-0.4,0.2-0.9,0.5-1.4,0.8
	c-0.5,0.4-1,0.8-1.6,1.3c-0.7,0.7-1.3,1.4-1.8,2.1c-0.5,0.7-1,1.5-1.4,2.2c-0.4,0.7-0.6,1.4-0.8,2.1c-0.1,0.6-0.2,1.2-0.1,1.7
	c0.1,0.1,0.1,0.1,0.2,0.2c0,0,0,0,0,0c0,0,0.1,0,0.1,0.1c0,0,0.1,0.1,0.1,0.1c0,0,0.1,0,0.1,0.1c0,0,0.1,0,0.1,0.1c0,0,0,0,0,0
	c0.1,0,0.1,0.1,0.2,0.1c0,0,0,0,0,0c0,0,0,0,0,0c-0.1-0.4,0-0.9,0.2-1.5c0.2-0.6,0.5-1.3,0.9-2c0.4-0.7,0.9-1.4,1.4-2.2
	C17.5,19.8,18.2,19.1,18.8,18.4z M15.8,16.1c0.5-0.5,1-1,1.6-1.3c0.5-0.3,1-0.6,1.5-0.8c0.5-0.2,0.9-0.2,1.3-0.2
	c0.4,0,0.8,0.1,1,0.3l-0.8-0.5l-0.2-0.2c0,0-0.1,0-0.1,0c0,0,0,0,0,0c-0.3-0.2-0.7-0.3-1.1-0.3c-0.4,0-0.9,0-1.4,0.2
	c-0.5,0.2-1,0.4-1.5,0.7c-0.5,0.3-1,0.8-1.5,1.3c-0.7,0.7-1.2,1.4-1.7,2.2c-0.5,0.8-0.9,1.6-1.2,2.4c-0.3,0.8-0.4,1.6-0.5,2.3
	c0,0.7,0.1,1.4,0.3,1.9c0,0,0,0,0.1,0c0,0,0.1,0,0.1,0.1c0,0,0,0,0,0c0,0,0,0,0.1,0c0,0,0.1,0,0.1,0.1c0,0,0,0,0,0c0,0,0,0,0.1,0
	c0,0,0.1,0.1,0.1,0.1c0,0,0,0,0,0c0,0,0,0,0,0c0,0,0.1,0.1,0.1,0.1c0,0,0,0,0,0c-0.2-0.5-0.2-1.1-0.2-1.8c0.1-0.7,0.3-1.4,0.6-2.2
	c0.3-0.8,0.7-1.6,1.2-2.3C14.6,17.5,15.2,16.8,15.8,16.1z M9.8,23c0,0,0.1,0,0.1,0.1c0,0,0,0,0,0c0,0,0,0,0.1,0c0,0,0.1,0,0.1,0.1
	c0,0,0,0,0,0c0,0,0,0,0.1,0c0,0,0.1,0,0.1,0.1c0,0,0,0,0,0c0,0,0,0,0.1,0c0,0,0.1,0,0.1,0.1c0,0,0,0,0,0c-0.3-0.6-0.5-1.3-0.5-2.1
	c0-0.8,0.1-1.6,0.3-2.4c0.2-0.8,0.6-1.7,1-2.4c0.5-0.8,1-1.5,1.7-2.2c0.5-0.5,1-0.9,1.5-1.2c0.5-0.3,1-0.6,1.5-0.7
	c0.5-0.1,1-0.2,1.4-0.2c0.5,0,0.9,0.2,1.3,0.4c0,0,0,0,0,0l0,0L17.9,12l-0.1,0c0,0,0,0,0,0c-0.4-0.2-0.8-0.3-1.3-0.4
	c-0.5,0-1,0-1.5,0.2c-0.5,0.1-1,0.4-1.5,0.7c-0.5,0.3-1,0.7-1.5,1.2c-0.7,0.7-1.2,1.4-1.7,2.2s-0.8,1.6-1,2.5
	c-0.2,0.8-0.3,1.7-0.2,2.5C9.2,21.6,9.4,22.3,9.8,23C9.8,22.9,9.8,23,9.8,23z M16.5,11.3L15.8,11l-0.2-0.1c-0.1,0-0.1,0-0.2-0.1
	c-0.4-0.2-0.9-0.2-1.3-0.3c-0.5,0-1,0-1.5,0.2c-0.5,0.1-1,0.3-1.5,0.6c-0.5,0.3-1,0.7-1.5,1.1C9,13.1,8.4,13.9,8,14.7
	c-0.4,0.8-0.7,1.7-0.8,2.6c-0.1,0.9-0.1,1.8,0,2.6c0.2,0.8,0.5,1.6,0.9,2.3c0,0,0,0,0,0c0,0,0.1,0,0.1,0c0,0,0,0,0,0c0,0,0,0,0.1,0
	c0,0,0.1,0,0.1,0c0,0,0,0,0,0c0,0,0,0,0.1,0c0,0,0.1,0,0.1,0c0,0,0,0,0,0c0,0,0,0,0.1,0c0,0,0.1,0,0.1,0c0,0,0,0,0,0
	C8.4,21.8,8.1,21,8,20.2c-0.1-0.8-0.1-1.7,0.1-2.5c0.2-0.9,0.5-1.7,0.9-2.5c0.4-0.8,1-1.6,1.6-2.2c0.5-0.5,1-0.9,1.5-1.2
	c0.5-0.3,1-0.5,1.6-0.7c0.5-0.1,1-0.2,1.5-0.1C15.6,11,16.1,11.1,16.5,11.3C16.5,11.3,16.6,11.3,16.5,11.3L16.5,11.3z M14.2,10.4
	c-0.3-0.1-0.6-0.2-0.9-0.3c0,0-0.1,0-0.1,0c0,0-0.1,0-0.1,0c-0.1,0-0.3-0.1-0.4-0.1C7.4,9.3,3,16.3,6.8,21.7c0,0,0,0,0,0
	c0,0,0.1,0,0.1,0c0,0,0,0,0,0c0,0,0,0,0,0c0,0,0.1,0,0.1,0c0,0,0,0,0,0c0,0,0,0,0,0c0,0,0.1,0,0.1,0c0,0,0,0,0,0c0,0,0,0,0,0
	c0,0,0.1,0,0.1,0c0,0,0,0,0,0c-0.1-0.1-0.2-0.3-0.3-0.4C4.1,16.7,8.2,8.8,14.2,10.4z M6,11.6c-0.7,0.7-1.2,1.4-1.5,2.3
	c-0.3,0.8-0.5,1.7-0.6,2.6c0,0.9,0.1,1.8,0.4,2.7c0.3,0.9,0.7,1.7,1.4,2.4c0,0,0,0,0,0c0,0,0,0,0.1,0c0,0,0,0,0,0c0,0,0,0,0,0
	c0,0,0,0,0.1,0c0,0,0,0,0,0c0,0,0,0,0,0c0,0,0,0,0.1,0c0,0,0,0,0,0c0,0,0,0,0,0c0,0,0.1,0,0.1,0c0,0,0,0,0,0
	c-3.5-4.3-0.9-12,5.3-11.7c0,0,0,0,0,0l0,0l-0.3,0l0,0c0,0,0,0,0,0c-0.3,0-0.7,0-1,0c0,0,0,0,0,0c0,0,0,0,0,0C9.7,9.8,9.4,9.9,9,9.9
	c-0.4,0.1-0.7,0.2-1.1,0.4c-0.3,0.2-0.7,0.3-1,0.6C6.6,11.1,6.3,11.3,6,11.6z M2.9,16.8c0,0.9,0.2,1.8,0.5,2.6
	c0.3,0.8,0.8,1.6,1.5,2.3c0,0,0,0,0,0c0,0,0,0,0,0c0,0,0,0,0,0c0,0,0,0,0,0c0,0,0,0,0,0c0,0,0,0,0,0c0,0,0,0,0,0c0,0,0,0,0,0
	c0,0,0,0,0,0c0,0,0,0,0,0c0,0,0,0,0,0c0,0,0,0,0,0c-3.4-4-2.1-9.7,2.7-11.4c0,0,0,0,0,0c0,0,0,0,0,0c-0.3,0.1-0.8,0.3-1.1,0.4
	c-0.2,0.1-0.4,0.2-0.6,0.3c0,0,0,0,0,0c0,0,0,0,0,0C6,11,5.9,11.1,5.8,11.2c-0.1,0.1-0.2,0.2-0.3,0.2c-0.1,0.1-0.2,0.2-0.3,0.3
	c-0.1,0.1-0.2,0.2-0.3,0.3c-0.7,0.7-1.2,1.4-1.5,2.2C3,15,2.9,15.9,2.9,16.8z M3.1,20.5c0.3,0.6,0.8,1.2,1.3,1.7c0,0,0,0,0,0
	c0,0,0,0,0-0.1c0,0,0,0,0,0c0,0,0,0,0,0c0,0,0,0,0,0c0,0,0,0,0,0c0,0,0,0,0,0c0,0,0,0,0-0.1c0,0,0,0,0,0c0,0,0,0,0,0c0,0,0,0,0,0
	c0,0,0,0,0,0c-2.5-2.7-2.8-6.2-0.7-9.1c0,0,0,0,0,0l0,0.1l-0.2,0.3l0,0c0,0,0,0,0,0.1c-0.1,0.2-0.2,0.3-0.3,0.4
	c-0.1,0.1-0.2,0.3-0.4,0.7c0,0,0,0,0,0l0,0l-0.1,0.1c-0.3,0.6-0.5,1.3-0.5,2c-0.1,0.7,0,1.4,0.1,2C2.5,19.3,2.7,19.9,3.1,20.5z
	 M4.2,23.1C4.2,23.1,4.2,23.1,4.2,23.1C4.2,23.1,4.2,23.1,4.2,23.1c0-0.1,0-0.1,0-0.1c0,0,0,0,0,0c0,0,0-0.1,0-0.1c0,0,0,0,0,0
	c0,0,0,0,0,0c0,0,0,0,0-0.1c0,0,0,0,0,0c0,0,0,0,0,0c0,0,0,0,0-0.1c0,0,0,0,0,0c-0.4-0.4-0.8-0.8-1.1-1.3c-0.3-0.4-0.5-0.9-0.7-1.4
	c-0.2-0.5-0.3-1-0.4-1.5c0-0.5,0-0.9,0-1.4c0,0,0-0.1,0-0.1l0,0.1c0,0.2,0,0.4-0.1,0.5c0,0.1,0,0.3,0,0.7c0,0.1,0,0.1,0,0.2
	c0,0.2,0,0.3,0,0.5C2.2,21.3,3.7,22.7,4.2,23.1z M2.2,20.3C2.2,20.3,2.2,20.3,2.2,20.3c0,0.1,0.1,0.3,0.1,0.4c0,0,0,0.1,0,0.1
	C2.3,20.6,2.2,20.5,2.2,20.3C2.2,20.3,2.2,20.3,2.2,20.3z M3.2,23.1c0.2,0.2,0.3,0.5,0.6,0.7C4,24,4.2,24.2,4.4,24.3
	c0,0,0-0.1,0-0.1c0,0,0,0,0,0c0,0,0,0,0,0c0,0,0-0.1,0-0.1c0,0,0,0,0,0c0,0,0,0,0,0c0,0,0-0.1,0-0.1c0,0,0,0,0,0c0,0,0,0,0,0
	c0,0,0-0.1,0-0.1c0,0,0,0,0,0C4,23.6,3.7,23.3,3.5,23c-0.2-0.3-0.4-0.6-0.6-0.9c-0.2-0.3-0.3-0.6-0.4-0.9c-0.1-0.2-0.1-0.3-0.2-0.5
	c0.1,0.3,0.1,0.5,0.2,0.8c0,0,0,0,0,0.1c0,0,0,0,0,0c0.1,0.2,0.2,0.5,0.3,0.7C2.9,22.6,3,22.8,3.2,23.1z"/>
</svg>
