<?xml version="1.0" encoding="utf-8"?>
<!-- Generator: Adobe Illustrator 27.0.1, SVG Export Plug-In . SVG Version: 6.00 Build 0)  -->
<svg version="1.1" id="Layer_1" xmlns="http://www.w3.org/2000/svg" xmlns:xlink="http://www.w3.org/1999/xlink" x="0px" y="0px"
	 width="50px" height="46px" viewBox="0 0 50 46" style="enable-background:new 0 0 50 46;" xml:space="preserve">
<style type="text/css">
	.st0{fill:#FFFFFF;}
</style>
<path class="st0" d="M13.3,46c4.1-7.5,22.4-9.5,41.1-4.5c-0.1,0.4-0.2,0.8-0.3,1.1C35.7,37,17.4,38.5,13.3,46z M54.7,39.9
	c0.1-0.4,0.1-0.8,0.2-1.2C36,35.3,17.4,38.5,13.3,46C17.4,38.5,35.9,35.8,54.7,39.9z M55,37.1c0-0.4,0-0.8,0-1.2
	C36.1,34,17.4,38.5,13.3,46C17.4,38.5,36,34.5,55,37.1z M55,34.3c0-0.4,0-0.8-0.1-1.2C36,32.7,17.4,38.5,13.3,46
	C17.4,38.5,36.1,33.3,55,34.3z M54.8,31.4c-0.1-0.4-0.1-0.8-0.2-1.2C35.9,31.5,17.4,38.5,13.3,46C17.4,38.5,36,32,54.8,31.4z
	 M54.3,28.6c-0.1-0.4-0.2-0.8-0.3-1.2C35.6,30.2,17.4,38.5,13.3,46C17.4,38.5,35.7,30.7,54.3,28.6z M53.6,25.8
	c-0.1-0.4-0.3-0.8-0.4-1.2C35.2,28.9,17.4,38.5,13.3,46C17.4,38.5,35.4,29.5,53.6,25.8z M52.5,23c-0.2-0.4-0.3-0.8-0.5-1.1
	C34.7,27.7,17.4,38.5,13.3,46C17.4,38.5,34.9,28.2,52.5,23z M51.3,20.3c-0.2-0.4-0.4-0.7-0.6-1.1C34.1,26.5,17.4,38.5,13.3,46
	C17.4,38.5,34.4,27,51.3,20.3z M49.7,17.6c-0.2-0.4-0.5-0.7-0.7-1.1c-15.7,8.8-31.6,22-35.7,29.5C17.4,38.5,33.7,25.8,49.7,17.6z
	 M47.9,15.1c-0.3-0.3-0.5-0.7-0.8-1C32.5,24.2,17.4,38.5,13.3,46C17.4,38.5,32.9,24.7,47.9,15.1z M45.9,12.7c-0.3-0.3-0.6-0.7-0.9-1
	C31.6,23.1,17.4,38.5,13.3,46C17.4,38.5,32,23.6,45.9,12.7z M43.6,10.3c-0.1-0.1-0.1-0.1-0.2-0.2c-0.3-0.3-0.6-0.5-0.8-0.7
	C30.5,22.1,17.4,38.5,13.3,46C17.4,38.5,30.9,22.6,43.6,10.3z M40,7.4C29.3,21.2,17.4,38.5,13.3,46c4.1-7.5,16.5-24.4,27.8-37.8
	C40.8,7.9,40.4,7.7,40,7.4z M37.3,5.6c-9.2,14.8-20,32.9-24,40.4c4.1-7.5,15.3-25.3,25.1-39.7C38.1,6.1,37.7,5.8,37.3,5.6z
	 M34.6,4.1c-7.7,15.7-17.2,34.5-21.2,42c4.1-7.5,14.1-26,22.4-41.3C35.4,4.5,35,4.3,34.6,4.1z M31.7,2.8
	C25.6,19.2,17.4,38.5,13.3,46c4.1-7.5,12.8-26.6,19.6-42.7C32.5,3.1,32.1,3,31.7,2.8z M28.8,1.8c-4.5,17-11.4,36.8-15.4,44.3
	C17.4,38.5,24.9,18.9,30,2.2C29.6,2,29.2,1.9,28.8,1.8z M25.8,1C23,18.4,17.4,38.5,13.3,46C17.4,38.5,23.5,18.5,27,1.3
	C26.6,1.2,26.2,1,25.8,1z M22.8,0.4c-1.2,17.7-5.4,38.1-9.4,45.6c4.1-7.5,8.8-27.8,10.7-45.4C23.6,0.5,23.2,0.5,22.8,0.4z M19.8,0.1
	C20.3,18,17.4,38.5,13.3,46c4.1-7.5,7.5-28,7.7-45.8C20.6,0.2,20.2,0.1,19.8,0.1z M18,0c-0.4,0-0.8,0-1.3,0
	c2.2,17.9,0.6,38.5-3.4,46C17.4,38.5,19.5,17.9,18,0z M15,0.1c-0.4,0-0.8,0.1-1.2,0.1C17.6,18,17.4,38.5,13.3,46
	C17.4,38.5,18.1,18,15,0.1z M12.1,0.5c-0.4,0.1-0.8,0.1-1.2,0.2c5.4,17.5,6.6,37.8,2.5,45.4C17.4,38.5,16.8,18.1,12.1,0.5z M9.2,1.1
	C8.8,1.2,8.4,1.3,8,1.4c7,17.2,9.4,37.2,5.4,44.7C17.4,38.5,15.5,18.4,9.2,1.1z M6.3,1.9C5.9,2,5.6,2.2,5.2,2.3
	C13.7,19,17.4,38.5,13.3,46C17.4,38.5,14.3,18.8,6.3,1.9z M3.6,3C3.2,3.2,2.9,3.3,2.5,3.5c10,16,14.9,35,10.9,42.5
	C17.4,38.5,13,19.3,3.6,3z M1,4.3C0.6,4.5,0.3,4.7-0.1,5C11.4,20.1,17.4,38.5,13.3,46C17.4,38.5,11.9,19.9,1,4.3z M-1.5,5.9
	c-0.3,0.2-0.7,0.5-1,0.7C10.3,20.9,17.4,38.5,13.3,46C17.4,38.5,10.8,20.6-1.5,5.9z M-3.8,7.8C-4.2,8-4.5,8.3-4.8,8.6
	C9.3,21.8,17.4,38.5,13.3,46C17.4,38.5,9.7,21.4-3.8,7.8z"/>
</svg>
