<?xml version="1.0" encoding="utf-8"?>
<!-- Generator: Adobe Illustrator 27.0.1, SVG Export Plug-In . SVG Version: 6.00 Build 0)  -->
<svg version="1.1" id="Layer_1" xmlns="http://www.w3.org/2000/svg" xmlns:xlink="http://www.w3.org/1999/xlink" x="0px" y="0px"
	 width="50px" height="46px" viewBox="0 0 50 46" style="enable-background:new 0 0 50 46;" xml:space="preserve">
<style type="text/css">
	.st0{fill:#FFFFFF;}
</style>
<path class="st0" d="M1.1,3.3C1.1,3.3,1.1,3.3,1.1,3.3l0-2C1.4,1,1.7,0.9,2,1.1c0.4,0.3,0.6,1,0.3,1.6C2.1,3.2,1.6,3.5,1.1,3.3z
	 M6.2,0.7c0.4,0.3,0.9,0.1,1-0.5c0-0.1,0-0.1,0-0.2H5.8C5.9,0.3,6,0.5,6.2,0.7z M5.7,4.8c0.2-0.5,0.1-1.2-0.4-1.6
	C4.9,3,4.4,3.2,4.1,3.8C3.9,4.3,4,5,4.4,5.3C4.9,5.6,5.4,5.4,5.7,4.8z M2.3,9.6c0.4,0.2,1-0.1,1.3-0.6c0.3-0.5,0.2-1.2-0.3-1.4
	c-0.4-0.2-1,0-1.3,0.6C1.7,8.7,1.8,9.3,2.3,9.6z M1.1,11.9v1.6c0.1-0.1,0.1-0.2,0.2-0.3C1.6,12.6,1.5,12.1,1.1,11.9z M9.6,3.4
	c0.4,0.4,0.9,0.2,1.1-0.3c0.1-0.5-0.2-1.3-0.7-1.7C9.5,1,9.1,1.2,9,1.7C8.9,2.3,9.1,3,9.6,3.4z M8.7,5.7c-0.4-0.3-1-0.2-1.2,0.3
	C7.2,6.6,7.4,7.2,7.8,7.5c0.4,0.3,1,0.2,1.3-0.3C9.3,6.7,9.2,6,8.7,5.7z M5.7,11.2c0.4,0.2,1,0,1.3-0.4c0.3-0.5,0.2-1.1-0.3-1.3
	c-0.4-0.3-1-0.1-1.3,0.4C5.1,10.4,5.2,11,5.7,11.2z M3.1,13.8c-0.3,0.5-0.2,1,0.3,1.2c0.4,0.1,1-0.1,1.3-0.6c0.3-0.5,0.2-1-0.3-1.2
	C4,13,3.4,13.3,3.1,13.8z M2.6,18.1c0.2-0.5,0.1-1-0.4-1.1c-0.4-0.1-0.9,0.1-1.2,0.5v1.1c0.1,0.1,0.2,0.1,0.3,0.1
	C1.8,18.9,2.4,18.6,2.6,18.1z M1.1,21.1v0.8c0,0,0-0.1,0.1-0.1C1.2,21.5,1.2,21.3,1.1,21.1z M13.4,2.5c0.5,0.4,0.8,0.4,0.7-0.1
	C14,1.9,13.5,1.2,13,0.8c-0.5-0.4-0.8-0.4-0.6,0.1C12.6,1.4,13,2.1,13.4,2.5z M13,6.2C13.4,6.5,14,6.4,14.1,6
	c0.1-0.5-0.2-1.2-0.6-1.5c-0.5-0.4-0.9-0.3-1,0.2C12.3,5.1,12.6,5.8,13,6.2z M12.5,9.5c0.3-0.4,0.1-1-0.4-1.3
	c-0.4-0.3-1-0.2-1.2,0.2c-0.3,0.4-0.1,1,0.3,1.3C11.7,10,12.2,9.9,12.5,9.5z M10.4,12.6c0.3-0.4,0.2-0.9-0.3-1.2
	c-0.4-0.3-1-0.1-1.3,0.3c-0.3,0.4-0.2,1,0.3,1.2C9.5,13.1,10.1,13,10.4,12.6z M6.8,16.1c0.4,0.1,1-0.1,1.3-0.5
	c0.3-0.4,0.2-0.9-0.3-1c-0.4-0.2-1,0-1.3,0.5C6.2,15.5,6.3,16,6.8,16.1z M6,18.8c0.2-0.4,0.1-0.8-0.4-0.9c-0.4-0.1-1,0.2-1.3,0.6
	c-0.2,0.4-0.1,0.9,0.4,0.9C5.3,19.5,5.8,19.2,6,18.8z M4.6,22c0.1-0.4-0.1-0.8-0.5-0.9c-0.4,0-0.9,0.3-1.1,0.7
	c-0.1,0.4,0.2,0.8,0.6,0.9C4,22.8,4.4,22.5,4.6,22z M4.2,25.4c0-0.4-0.4-0.8-0.8-0.8c-0.4,0-0.8,0.4-0.8,0.8c0,0.4,0.3,0.7,0.8,0.7
	C3.8,26.1,4.2,25.8,4.2,25.4z M2.2,28.5c-0.1,0.4,0.2,0.7,0.6,0.7c0.4,0,0.9-0.4,1-0.7c0.1-0.4-0.2-0.7-0.7-0.7
	C2.7,27.8,2.3,28.1,2.2,28.5z M2,32.2c0.4-0.1,0.9-0.4,1-0.8c0.1-0.4-0.1-0.6-0.6-0.6c-0.4,0-0.9,0.4-1,0.8C1.3,32,1.6,32.2,2,32.2z
	 M1.9,34.1c0.1-0.3-0.1-0.6-0.5-0.5c-0.1,0-0.2,0.1-0.4,0.2v1.1C1.5,34.8,1.8,34.4,1.9,34.1z M1.9,44.8c-0.2-0.3-0.5-0.4-0.8-0.3V46
	H2c0,0,0,0,0,0C2.3,45.7,2.3,45.2,1.9,44.8z M16.4,2c0.5,0.4,0.8,0.2,0.7-0.3c-0.2-0.5-0.8-1.3-1.3-1.6H15c0,0.1,0,0.2,0.1,0.3
	C15.3,0.9,15.9,1.6,16.4,2z M17.2,5.6C17.7,6,18.1,5.9,18,5.5c-0.1-0.4-0.6-1.1-1.1-1.5c-0.5-0.4-0.9-0.3-0.8,0.1
	C16.3,4.5,16.7,5.2,17.2,5.6z M16.6,8.9c0.5,0.3,1,0.3,1.2-0.1c0.1-0.4-0.2-1-0.7-1.4C16.6,7,16.1,7,16,7.5
	C15.9,7.9,16.1,8.6,16.6,8.9z M16.1,11.8c0.3-0.3,0.1-0.9-0.4-1.2c-0.5-0.3-1.1-0.2-1.3,0.1c-0.3,0.4-0.1,0.9,0.4,1.2
	C15.2,12.2,15.8,12.2,16.1,11.8z M13.6,13.3c-0.5-0.2-1.1-0.2-1.4,0.2c-0.3,0.4-0.2,0.8,0.3,1c0.5,0.2,1.1,0.1,1.4-0.2
	S14.1,13.6,13.6,13.3z M10.3,17.2c0.5,0.1,1.1,0,1.4-0.4c0.3-0.3,0.2-0.7-0.3-0.9c-0.5-0.2-1.1,0-1.4,0.3
	C9.7,16.7,9.8,17.1,10.3,17.2z M8.3,20c0.5,0.1,1-0.2,1.2-0.5c0.2-0.3,0.1-0.7-0.4-0.8c-0.5-0.1-1,0.1-1.3,0.5
	C7.6,19.6,7.8,19.9,8.3,20z M8.1,22.3c0.1-0.4-0.1-0.7-0.5-0.8c-0.5,0-1,0.2-1.1,0.6c-0.1,0.4,0.2,0.8,0.6,0.8
	C7.5,23,7.9,22.7,8.1,22.3z M7.6,25.4c0-0.4-0.4-0.8-0.8-0.8C6.3,24.6,6,25,6,25.4c0,0.4,0.3,0.7,0.8,0.7
	C7.2,26.1,7.6,25.8,7.6,25.4z M6.2,29c0.4,0,0.9-0.3,1-0.7C7.3,28,7,27.7,6.5,27.7c-0.4,0-0.9,0.3-0.9,0.7C5.5,28.8,5.8,29,6.2,29z
	 M6.2,30.9c0.1-0.3-0.1-0.5-0.5-0.5c-0.4,0-0.9,0.4-1,0.7c-0.1,0.3,0.1,0.6,0.5,0.5C5.6,31.6,6.1,31.3,6.2,30.9z M5,33.3
	c0.2-0.3,0-0.4-0.4-0.3c-0.4,0.1-0.9,0.4-1,0.8C3.4,34,3.6,34.1,4,34C4.4,33.9,4.9,33.5,5,33.3z M2.9,36.2c0.4-0.2,0.8-0.6,0.9-0.8
	c0.1-0.3,0-0.4-0.4-0.2C3,35.3,2.6,35.7,2.5,36C2.4,36.3,2.6,36.4,2.9,36.2z M2.5,37.3c-0.4,0.2-0.7,0.6-0.8,0.9
	c-0.1,0.3,0.2,0.4,0.5,0.1c0.3-0.3,0.7-0.7,0.7-1C3.1,37.1,2.9,37.1,2.5,37.3z M2.4,40.9c0.3-0.3,0.5-0.8,0.4-1.1
	c-0.1-0.3-0.3-0.4-0.7-0.1c-0.3,0.3-0.6,0.8-0.5,1.1C1.7,41.1,2.1,41.2,2.4,40.9z M4.4,43.6c0.3-0.3,0.3-0.9-0.1-1.2
	C4,42,3.5,42,3.2,42.3c-0.3,0.3-0.4,0.9,0,1.2C3.5,43.9,4.1,43.9,4.4,43.6z M5.6,45.4c-0.2,0.2-0.3,0.4-0.3,0.7h1.4
	c0-0.1,0-0.2-0.1-0.3C6.4,45.2,5.9,45.1,5.6,45.4z M19.4,0H19C19.2,0.1,19.3,0.1,19.4,0z M21.2,4c-0.2-0.6-0.8-1.3-1.3-1.6
	c-0.5-0.3-0.8-0.1-0.6,0.5c0.2,0.6,0.7,1.3,1.3,1.6C21.1,4.9,21.4,4.6,21.2,4z M20.9,6.7c-0.5-0.3-0.9-0.2-0.8,0.3
	c0.1,0.4,0.5,1,1,1.3C21.6,8.6,22,8.5,22,8.1C21.9,7.7,21.5,7,20.9,6.7z M20.8,9.9c-0.5-0.3-1-0.2-1.1,0.2c-0.1,0.4,0.1,0.9,0.6,1.2
	c0.5,0.3,1,0.2,1.2-0.2C21.6,10.7,21.3,10.2,20.8,9.9z M18,12.9c-0.3,0.3-0.1,0.8,0.4,1c0.5,0.2,1.1,0.2,1.4-0.1
	c0.3-0.3,0.1-0.7-0.4-1C18.9,12.5,18.3,12.6,18,12.9z M16.1,16c0.5,0.2,1.1,0.1,1.4-0.2c0.3-0.3,0.2-0.6-0.3-0.8
	c-0.5-0.2-1.1-0.1-1.4,0.2C15.5,15.5,15.7,15.9,16.1,16z M13.8,18.2c0.5,0.1,1.1,0,1.4-0.3c0.3-0.3,0.2-0.6-0.3-0.7
	c-0.5-0.1-1.1,0-1.4,0.3C13.2,17.7,13.4,18.1,13.8,18.2z M13.1,20c0.2-0.3,0.1-0.6-0.4-0.7c-0.5-0.1-1,0.1-1.3,0.4
	c-0.2,0.3-0.1,0.6,0.4,0.7C12.3,20.5,12.8,20.3,13.1,20z M11.5,22.5c0.1-0.3-0.1-0.6-0.5-0.7c-0.5,0-1,0.2-1.1,0.6
	c-0.1,0.4,0.1,0.7,0.6,0.7C10.9,23.1,11.4,22.8,11.5,22.5z M11,25.4c0-0.4-0.3-0.7-0.8-0.7c-0.4,0-0.8,0.3-0.8,0.7
	c0,0.4,0.3,0.7,0.8,0.7C10.6,26.1,11,25.8,11,25.4z M10.6,28.2c0.1-0.3-0.2-0.6-0.6-0.6c-0.4,0-0.9,0.3-1,0.7
	c-0.1,0.3,0.2,0.6,0.6,0.6C10,28.8,10.5,28.5,10.6,28.2z M8.4,31.1c0.4-0.1,0.9-0.3,1.1-0.6C9.7,30.2,9.5,30,9,30.1
	c-0.4,0-0.9,0.3-1.1,0.6C7.8,31,8,31.2,8.4,31.1z M8.1,32.4c0.2-0.2,0-0.3-0.4-0.2c-0.4,0.1-0.9,0.4-1.1,0.6c-0.2,0.3,0,0.4,0.4,0.2
	C7.5,32.9,7.9,32.6,8.1,32.4z M5.8,34.7c0.4-0.2,0.8-0.5,1-0.7c0.2-0.2,0-0.2-0.4-0.1c-0.4,0.2-0.8,0.5-1,0.7
	C5.2,34.9,5.4,34.9,5.8,34.7z M5.2,35.6c-0.4,0.2-0.7,0.6-0.8,0.8c-0.1,0.2,0.1,0.3,0.5,0c0.3-0.3,0.7-0.6,0.8-0.9
	C5.8,35.3,5.6,35.4,5.2,35.6z M5.3,37.5c0-0.3-0.3-0.3-0.6,0c-0.3,0.3-0.6,0.7-0.5,1c0.1,0.3,0.4,0.3,0.7,0
	C5.2,38.3,5.4,37.8,5.3,37.5z M6.8,41.2c0.3-0.3,0.3-0.9-0.1-1.2c-0.3-0.4-0.8-0.4-1.1-0.1c-0.3,0.3-0.4,0.8,0,1.2
	C6,41.5,6.5,41.5,6.8,41.2z M8,43c-0.3,0.3-0.4,1-0.1,1.5c0.2,0.6,0.6,0.8,1,0.5c0.3-0.3,0.4-1,0.2-1.6C8.8,42.9,8.4,42.7,8,43z
	 M21.6,0.1c0.3,0.7,0.9,1.3,1.4,1.5c0.5,0.1,0.7-0.3,0.4-1c-0.1-0.2-0.2-0.4-0.3-0.6L21.6,0.1C21.6,0.1,21.6,0.1,21.6,0.1z M23.3,5
	c0.2,0.6,0.7,1.2,1.2,1.4c0.5,0.2,0.8-0.2,0.6-0.8C25,5,24.5,4.4,23.9,4.2C23.4,4,23.2,4.4,23.3,5z M24.9,8.6
	C24.4,8.4,24,8.6,24,9.1c0,0.4,0.4,0.9,0.9,1.1c0.5,0.2,0.9-0.1,0.9-0.5C25.8,9.3,25.4,8.7,24.9,8.6z M25.1,12.6
	c0.2-0.3-0.1-0.7-0.6-0.9c-0.5-0.2-1,0-1.1,0.3c-0.2,0.3,0,0.8,0.5,0.9C24.4,13.1,24.9,13,25.1,12.6z M21.6,14.5
	c-0.3,0.3-0.1,0.6,0.3,0.7c0.5,0.1,1.1,0,1.3-0.3c0.3-0.3,0.1-0.6-0.3-0.7C22.5,14.1,21.9,14.2,21.6,14.5z M20.8,16.2
	c-0.5-0.1-1.1,0-1.4,0.2c-0.3,0.2-0.2,0.5,0.3,0.6c0.5,0.1,1.1,0,1.4-0.3C21.4,16.5,21.3,16.3,20.8,16.2z M17.3,18.8
	c0.5,0,1.1-0.1,1.4-0.3c0.3-0.2,0.2-0.4-0.3-0.5c-0.5-0.1-1.1,0.1-1.4,0.3C16.8,18.5,16.9,18.7,17.3,18.8z M16.6,20.3
	c0.2-0.3,0.1-0.5-0.4-0.5c-0.5,0-1,0.1-1.3,0.4c-0.2,0.3-0.1,0.5,0.4,0.5C15.8,20.8,16.3,20.6,16.6,20.3z M14,23.1
	c0.4,0,0.9-0.3,1.1-0.6c0.1-0.3-0.1-0.6-0.5-0.6c-0.5,0-1,0.2-1.1,0.6C13.2,22.9,13.5,23.2,14,23.1z M13.7,24.6
	c-0.4,0-0.8,0.3-0.8,0.7c0,0.4,0.3,0.7,0.8,0.7c0.4,0,0.8-0.3,0.8-0.7C14.4,25,14.1,24.6,13.7,24.6z M12.9,28.7c0.4,0,0.9-0.3,1-0.6
	c0.1-0.3-0.2-0.6-0.6-0.5c-0.4,0-0.9,0.3-1,0.6C12.3,28.5,12.5,28.7,12.9,28.7z M11.7,30.6c0.4-0.1,0.9-0.3,1.1-0.5
	c0.2-0.2,0-0.4-0.4-0.3c-0.4,0-0.9,0.3-1.1,0.5C11.1,30.5,11.2,30.6,11.7,30.6z M10.1,32.1c0.4-0.1,0.9-0.4,1.1-0.5
	c0.2-0.2,0.1-0.2-0.4-0.1c-0.4,0.1-0.9,0.3-1.1,0.5C9.6,32.1,9.7,32.2,10.1,32.1z M9.6,32.7c0.2-0.1,0-0.1-0.3,0
	c-0.4,0.2-0.8,0.4-1,0.6c-0.2,0.2,0,0.1,0.4,0C9,33.1,9.4,32.8,9.6,32.7z M7.5,34.5c0.3-0.3,0.7-0.6,0.8-0.7c0.1-0.1,0-0.1-0.4,0.1
	c-0.4,0.2-0.8,0.5-0.9,0.7C7,34.8,7.2,34.7,7.5,34.5z M7.8,35.3c0-0.2-0.3-0.2-0.6,0.1c-0.3,0.3-0.6,0.7-0.6,1
	c0,0.3,0.4,0.2,0.7-0.1C7.7,35.9,7.9,35.5,7.8,35.3z M9.2,37.5c-0.3-0.4-0.8-0.4-1.1-0.1c-0.3,0.3-0.4,0.8,0,1.2
	c0.3,0.4,0.9,0.4,1.2,0.1C9.6,38.5,9.5,37.9,9.2,37.5z M10.5,40.7c-0.3,0.3-0.4,1-0.1,1.6c0.2,0.6,0.7,0.9,1,0.6
	c0.3-0.3,0.4-1.1,0.2-1.7C11.3,40.5,10.8,40.4,10.5,40.7z M12.2,45.6C12,45.7,12,45.9,11.9,46h1C12.7,45.6,12.4,45.4,12.2,45.6z
	 M25.5,0.9c0.3,0.7,0.9,1.3,1.3,1.2c0.4,0,0.6-0.6,0.3-1.3C27,0.5,26.8,0.3,26.6,0h-1.2C25.3,0.3,25.3,0.6,25.5,0.9z M27.7,4.8
	c-0.4,0-0.7,0.5-0.5,1.1C27.4,6.5,27.9,7,28.3,7c0.4,0,0.7-0.5,0.5-1.1C28.6,5.2,28.1,4.8,27.7,4.8z M28.6,9.2
	c-0.4,0-0.8,0.4-0.8,0.9c0,0.4,0.3,0.8,0.7,0.8c0.4,0,0.8-0.4,0.9-0.8C29.4,9.5,29,9.1,28.6,9.2z M27.4,13.6c0.4,0,0.9-0.3,1.1-0.7
	c0.2-0.3,0-0.6-0.4-0.5c-0.4,0-0.9,0.3-1.1,0.6C26.8,13.3,27,13.6,27.4,13.6z M26.4,14.7c-0.4,0-1,0.2-1.3,0.5
	c-0.3,0.3-0.2,0.5,0.3,0.4c0.4,0,1-0.2,1.2-0.5C26.9,14.9,26.8,14.7,26.4,14.7z M23.1,17.3c0.4,0,1-0.2,1.3-0.4
	c0.3-0.2,0.2-0.4-0.2-0.3c-0.4,0-1,0.2-1.3,0.4C22.6,17.1,22.7,17.3,23.1,17.3z M21.9,18.1c-0.5,0-1.1,0.2-1.4,0.4
	c-0.3,0.2-0.2,0.4,0.3,0.4c0.5,0,1.1-0.2,1.4-0.4C22.4,18.3,22.3,18.1,21.9,18.1z M20.1,20.3c0.2-0.3,0.1-0.4-0.4-0.5
	c-0.5,0-1,0.2-1.3,0.4c-0.2,0.3-0.1,0.5,0.4,0.5C19.3,20.8,19.8,20.6,20.1,20.3z M17.4,23.1c0.5,0,0.9-0.3,1.1-0.6
	c0.2-0.3-0.1-0.6-0.5-0.6c-0.5,0-1,0.2-1.1,0.6C16.7,22.8,17,23.1,17.4,23.1z M17.8,25.4c0-0.4-0.3-0.7-0.7-0.7
	c-0.4,0-0.8,0.3-0.8,0.8c0,0.4,0.3,0.7,0.8,0.7C17.4,26,17.8,25.7,17.8,25.4z M16.3,28.4c0.4-0.1,0.8-0.3,1-0.6
	c0.1-0.3-0.1-0.4-0.5-0.4c-0.4,0.1-0.8,0.3-1,0.6C15.6,28.3,15.9,28.5,16.3,28.4z M14.9,30c0.4-0.1,0.9-0.4,1.1-0.5
	c0.2-0.2,0-0.2-0.4-0.1c-0.4,0.1-0.9,0.3-1.1,0.5C14.3,30,14.5,30.1,14.9,30z M14,30.6c-0.4,0.2-0.9,0.4-1.1,0.5
	c-0.2,0.1-0.1,0.1,0.3,0c0.4-0.2,0.9-0.4,1.1-0.5C14.5,30.4,14.4,30.4,14,30.6z M12.6,31.3C12.7,31.2,12.7,31.2,12.6,31.3L12.6,31.3
	z M12.6,31.3C12.6,31.3,12.6,31.3,12.6,31.3c-0.2,0.1-0.7,0.3-1.1,0.5c-0.1,0.1-0.3,0.1-0.3,0.2c0,0,0,0,0,0c0.2-0.1,0.7-0.3,1-0.5
	C12.4,31.4,12.5,31.3,12.6,31.3z M10.8,32.2c-0.4,0.2-0.8,0.5-1,0.6c-0.1,0.1,0,0,0.4-0.2c0.4-0.2,0.9-0.5,1-0.6c0.1,0,0.1,0,0,0
	c0,0,0,0,0,0C11.1,32,11,32.1,10.8,32.2z M10.6,33.1c0-0.2-0.3-0.2-0.7,0.1c-0.4,0.3-0.7,0.7-0.7,0.9c0,0.2,0.3,0.2,0.7-0.1
	C10.3,33.7,10.6,33.3,10.6,33.1z M11.8,35.1c-0.3-0.3-0.8-0.4-1.2-0.1c-0.4,0.3-0.4,0.8-0.1,1.2c0.3,0.4,0.9,0.4,1.3,0.1
	C12.1,36,12.1,35.5,11.8,35.1z M13.9,40.6c0.4-0.3,0.5-1,0.2-1.6c-0.3-0.6-0.8-0.9-1.2-0.6c-0.4,0.3-0.4,1-0.1,1.6
	C13.1,40.5,13.5,40.8,13.9,40.6z M15.8,44.7c-0.2-0.8-0.6-1.3-1-1.1c-0.4,0.2-0.5,1.1-0.3,1.9c0,0.2,0.1,0.4,0.1,0.5h1.2
	C15.9,45.7,15.9,45.2,15.8,44.7z M29.9,1.6c0.4-0.1,0.5-0.8,0.2-1.4c0,0,0-0.1,0-0.1h-1.5c0,0.2,0.1,0.3,0.1,0.5
	C29,1.2,29.5,1.7,29.9,1.6z M31.3,6.3c0.3-0.1,0.5-0.7,0.4-1.3c-0.1-0.6-0.6-1-0.9-0.8c-0.4,0.1-0.5,0.7-0.4,1.3
	C30.5,6.1,30.9,6.5,31.3,6.3z M31.6,8.5c-0.3,0.1-0.6,0.6-0.7,1.1c-0.1,0.4,0.1,0.7,0.5,0.5c0.3-0.1,0.7-0.6,0.7-1
	C32.2,8.6,31.9,8.4,31.6,8.5z M30.2,12.9c0.3-0.1,0.7-0.5,0.9-0.9c0.2-0.3,0.1-0.5-0.2-0.3c-0.3,0.1-0.7,0.5-0.9,0.9
	C29.7,12.9,29.8,13,30.2,12.9z M29.3,14.1c-0.3,0.1-0.8,0.4-1.1,0.7c-0.3,0.3-0.2,0.4,0.2,0.3c0.3-0.1,0.8-0.4,1.1-0.7
	C29.6,14.1,29.6,14,29.3,14.1z M26.3,16.9c0.4-0.1,0.9-0.4,1.2-0.6c0.3-0.2,0.2-0.3-0.2-0.2c-0.4,0.1-0.9,0.4-1.2,0.6
	C25.8,16.9,25.9,17,26.3,16.9z M24.2,18.7c0.4-0.1,1-0.3,1.2-0.6c0.3-0.2,0.2-0.3-0.2-0.3c-0.4,0.1-1,0.3-1.2,0.5
	C23.6,18.6,23.8,18.7,24.2,18.7z M22.3,20.6c0.4-0.1,1-0.3,1.2-0.6c0.2-0.3,0.1-0.4-0.3-0.4c-0.4,0.1-1,0.3-1.2,0.6
	C21.7,20.5,21.8,20.7,22.3,20.6z M20.9,23c0.4,0,0.9-0.4,1.1-0.7c0.2-0.3,0-0.5-0.5-0.5c-0.4,0-1,0.3-1.1,0.6
	C20.2,22.7,20.4,23,20.9,23z M21.1,25c0.1-0.4-0.2-0.7-0.6-0.6c-0.4,0-0.8,0.4-0.9,0.8c0,0.4,0.2,0.6,0.7,0.5
	C20.6,25.7,21,25.4,21.1,25z M20.3,27.2c0.1-0.2-0.1-0.4-0.5-0.3c-0.4,0.1-0.8,0.4-1,0.6c-0.1,0.2,0.1,0.3,0.5,0.3
	C19.7,27.7,20.2,27.4,20.3,27.2z M17.9,29.1c0.4-0.1,0.9-0.3,1.1-0.4c0.2-0.2,0-0.2-0.4-0.1s-0.9,0.3-1.1,0.5
	C17.3,29.2,17.5,29.2,17.9,29.1z M16.3,30c0.4-0.1,0.9-0.2,1.1-0.3c0.2-0.1,0-0.1-0.4,0c-0.4,0.1-0.9,0.3-1.1,0.4
	C15.7,30.1,15.8,30.1,16.3,30z M15.4,30.4c-0.4,0.1-0.9,0.3-1.1,0.3c-0.2,0.1,0,0,0.4,0c0.4-0.1,0.9-0.2,1.1-0.3
	C16,30.3,15.9,30.3,15.4,30.4z M13.6,31.3c0.5-0.1,0.9-0.2,1.1-0.3c0.1-0.1-0.1-0.1-0.6,0c-0.4,0.1-0.9,0.3-1.1,0.3
	C12.9,31.4,13.1,31.4,13.6,31.3z M13.2,32.6c0.5-0.1,0.8-0.3,0.8-0.5c0-0.2-0.4-0.3-0.8-0.2c-0.5,0.1-0.9,0.3-0.9,0.5
	C12.3,32.6,12.7,32.6,13.2,32.6z M14.8,34.8c0.4-0.1,0.5-0.5,0.2-0.8c-0.3-0.3-0.8-0.5-1.3-0.4c-0.5,0.1-0.6,0.4-0.3,0.8
	C13.7,34.6,14.4,34.8,14.8,34.8z M16.9,39.3c0.4-0.1,0.6-0.7,0.3-1.4s-0.8-1.1-1.3-1c-0.4,0.1-0.5,0.7-0.3,1.3
	C16,38.9,16.5,39.4,16.9,39.3z M18.5,45.5c0.4-0.1,0.6-0.8,0.5-1.7c-0.2-0.9-0.7-1.5-1.1-1.4c-0.4,0.1-0.6,0.8-0.4,1.7
	C17.6,45,18.1,45.6,18.5,45.5z M32.6,0.4c0.1-0.1,0.2-0.2,0.2-0.3h-1C32.1,0.4,32.3,0.5,32.6,0.4z M33.2,2.9
	c-0.3,0.2-0.4,0.9-0.3,1.4c0.1,0.6,0.4,0.9,0.7,0.6c0.3-0.2,0.4-0.9,0.3-1.4C33.9,2.9,33.5,2.6,33.2,2.9z M33.8,7.1
	c-0.3,0.2-0.5,0.8-0.6,1.2c-0.1,0.4,0,0.6,0.3,0.3c0.2-0.2,0.5-0.8,0.6-1.2C34.3,7,34.1,6.8,33.8,7.1z M32.3,11.5
	c0.3-0.2,0.6-0.7,0.8-1.1c0.2-0.4,0.1-0.5-0.1-0.2c-0.2,0.2-0.6,0.7-0.8,1C32,11.6,32.1,11.7,32.3,11.5z M31.5,12.8
	c-0.3,0.2-0.7,0.6-0.9,0.9c-0.2,0.3-0.2,0.4,0.1,0.2c0.3-0.2,0.7-0.6,0.9-0.9C31.9,12.7,31.8,12.6,31.5,12.8z M29,15.9
	c0.3-0.2,0.8-0.5,1-0.8c0.2-0.3,0.2-0.3-0.2-0.2c-0.3,0.2-0.8,0.5-1,0.8C28.6,16,28.7,16.1,29,15.9z M28.1,17
	c-0.4,0.1-0.9,0.4-1.1,0.7c-0.2,0.3-0.1,0.4,0.3,0.2c0.4-0.1,0.9-0.5,1.1-0.7C28.5,16.9,28.4,16.8,28.1,17z M25.5,20
	c0.4-0.1,0.9-0.4,1.1-0.7c0.2-0.3,0.1-0.4-0.3-0.3c-0.4,0.1-0.9,0.4-1.1,0.7C25,20,25.1,20.1,25.5,20z M25.2,21.7
	c0.2-0.3,0-0.5-0.5-0.4c-0.4,0.1-0.9,0.4-1.1,0.7c-0.2,0.3,0.1,0.5,0.5,0.5C24.6,22.4,25.1,22,25.2,21.7z M24.3,24.4
	c0.1-0.4-0.2-0.6-0.6-0.5c-0.4,0.1-0.8,0.5-0.9,0.8c-0.1,0.3,0.2,0.5,0.6,0.4C23.8,25.1,24.2,24.8,24.3,24.4z M23.4,26.6
	c0.1-0.2-0.1-0.4-0.5-0.3c-0.4,0.1-0.8,0.4-1,0.6c-0.1,0.2,0,0.3,0.4,0.3C22.8,27,23.2,26.8,23.4,26.6z M21,28.5
	c0.4-0.1,0.9-0.2,1.1-0.4c0.2-0.2,0-0.3-0.4-0.2c-0.4,0.1-0.9,0.3-1.1,0.4C20.4,28.5,20.6,28.6,21,28.5z M20.7,29.3
	c0.2-0.1,0-0.2-0.4-0.2c-0.4,0-0.9,0.2-1.1,0.3c-0.2,0.1,0,0.2,0.4,0.1C20,29.5,20.5,29.4,20.7,29.3z M18.8,30c-0.5,0-1,0.1-1.1,0.2
	c-0.2,0.1,0.1,0.2,0.5,0.2c0.5,0,1-0.1,1.1-0.2C19.5,30.1,19.3,30,18.8,30z M16.5,30.9c-0.1,0.1,0.2,0.2,0.7,0.3c0.5,0,1,0,1.1-0.1
	c0.1-0.1-0.2-0.3-0.7-0.3C17.1,30.7,16.7,30.8,16.5,30.9z M16.9,32.5c0.5,0.1,0.9,0,0.9-0.2c0-0.2-0.4-0.4-0.9-0.5
	c-0.5-0.1-0.9,0.1-0.9,0.2C16,32.2,16.4,32.4,16.9,32.5z M18.4,34.7c0.5,0.1,0.6-0.2,0.4-0.5c-0.3-0.3-0.8-0.6-1.3-0.7
	c-0.5-0.1-0.7,0.1-0.5,0.4C17.2,34.2,17.9,34.7,18.4,34.7z M20.4,39.4c0.5,0.1,0.7-0.4,0.4-1.1c-0.2-0.7-0.8-1.2-1.3-1.3
	c-0.5-0.1-0.6,0.4-0.4,1C19.3,38.7,19.9,39.3,20.4,39.4z M21.9,45.5c0.5,0,0.7-0.6,0.5-1.4c-0.2-0.8-0.7-1.5-1.2-1.6
	c-0.5-0.1-0.7,0.6-0.5,1.4C21,44.7,21.5,45.4,21.9,45.5z M35.6,3c0.2-0.3,0.4-0.9,0.3-1.4c0-0.5-0.3-0.8-0.6-0.5
	C35.1,1.3,35,2,35,2.5C35.1,3.1,35.4,3.3,35.6,3z M35.2,6.6c0.2-0.3,0.4-0.9,0.6-1.3c0.1-0.4,0-0.6-0.2-0.3
	c-0.2,0.3-0.4,0.9-0.5,1.3C34.9,6.8,35,6.9,35.2,6.6z M34.6,8.2C34.4,8.5,34.1,9,34,9.4c-0.2,0.4-0.1,0.5,0.1,0.2
	c0.2-0.3,0.5-0.8,0.6-1.2C34.8,8,34.8,7.9,34.6,8.2z M33.4,11c-0.2,0.2-0.6,0.7-0.7,1.1c-0.2,0.3-0.1,0.4,0.1,0.1
	c0.2-0.2,0.6-0.7,0.7-1C33.7,10.9,33.7,10.8,33.4,11z M32.1,13.5c-0.3,0.2-0.7,0.6-0.9,0.9c-0.2,0.3-0.1,0.4,0.2,0.2
	c0.3-0.2,0.7-0.6,0.8-0.9C32.5,13.3,32.4,13.3,32.1,13.5z M29.7,16.6c-0.2,0.3-0.1,0.4,0.3,0.2c0.3-0.2,0.8-0.5,0.9-0.8
	c0.2-0.3,0.1-0.4-0.3-0.2C30.4,15.9,29.9,16.3,29.7,16.6z M29.3,18.1c-0.4,0.1-0.8,0.5-1,0.8c-0.2,0.3,0,0.5,0.4,0.3s0.8-0.5,1-0.8
	C29.8,18.1,29.6,17.9,29.3,18.1z M28.4,20.9c0.1-0.3,0-0.5-0.4-0.4c-0.4,0.1-0.9,0.5-1,0.8c-0.2,0.3,0.1,0.5,0.5,0.4
	C27.8,21.6,28.2,21.3,28.4,20.9z M26.4,24.5c0.4-0.1,0.8-0.4,0.9-0.8c0.1-0.4-0.1-0.6-0.5-0.5c-0.4,0.1-0.8,0.5-0.9,0.9
	C25.8,24.4,26,24.6,26.4,24.5z M25.4,26.5c0.4-0.1,0.8-0.3,1-0.6c0.1-0.3-0.1-0.4-0.4-0.3c-0.4,0.1-0.8,0.4-1,0.6S25,26.6,25.4,26.5
	z M25.2,27.8c0.2-0.2,0-0.3-0.4-0.3c-0.4,0-0.9,0.3-1,0.4c-0.2,0.2,0,0.3,0.4,0.3C24.6,28.2,25,28,25.2,27.8z M24,29.2
	c0.2-0.2,0-0.3-0.5-0.3c-0.4,0-0.9,0.1-1.1,0.3c-0.2,0.2,0.1,0.3,0.5,0.3C23.4,29.5,23.8,29.4,24,29.2z M22.9,30.5
	c0.1-0.2-0.1-0.3-0.6-0.4c-0.5-0.1-1,0-1.1,0.2c-0.1,0.1,0.1,0.3,0.6,0.4C22.3,30.8,22.7,30.7,22.9,30.5z M22.1,31.8
	c0.1-0.2-0.2-0.4-0.7-0.5c-0.5-0.1-1-0.1-1.1,0.1c-0.1,0.1,0.2,0.4,0.8,0.5C21.6,32,22,32,22.1,31.8z M20.9,33.5
	c0.5,0.2,0.8,0.1,0.8-0.1c0-0.2-0.4-0.5-0.9-0.7c-0.5-0.2-1-0.1-0.9,0.1C19.9,33,20.4,33.3,20.9,33.5z M22.6,35.6
	c-0.2-0.3-0.7-0.7-1.2-1c-0.5-0.2-0.8-0.1-0.6,0.2c0.2,0.3,0.9,0.9,1.4,1.1C22.7,36.1,22.9,35.9,22.6,35.6z M24.1,40.4
	c0.5,0.2,0.7-0.2,0.4-0.8c-0.2-0.6-0.8-1.3-1.3-1.5c-0.5-0.2-0.7,0.1-0.5,0.8C23,39.5,23.6,40.2,24.1,40.4z M26.1,45
	c-0.2-0.8-0.7-1.5-1.2-1.7c-0.5-0.2-0.7,0.3-0.5,1.2c0.2,0.6,0.5,1.2,0.9,1.5h0.8C26.2,45.8,26.2,45.5,26.1,45z M36.8,0.5
	c0,0.5,0.2,0.7,0.4,0.4c0.1-0.2,0.2-0.5,0.3-0.9h-0.7C36.8,0.2,36.8,0.3,36.8,0.5z M37,2.8c-0.2,0.3-0.4,0.9-0.5,1.3
	c-0.1,0.4-0.1,0.5,0,0.2C36.7,4,36.9,3.5,37,3C37.2,2.6,37.1,2.5,37,2.8z M36,6c-0.2,0.3-0.4,0.8-0.5,1.2c-0.1,0.4-0.1,0.5,0.1,0.2
	c0.2-0.3,0.4-0.8,0.5-1.2C36.1,5.8,36.1,5.7,36,6z M34.6,10.4c0.2-0.2,0.5-0.7,0.6-1.1c0.1-0.4,0-0.5-0.2-0.3
	c-0.2,0.3-0.5,0.8-0.6,1.2C34.3,10.6,34.4,10.7,34.6,10.4z M34.1,11.8c-0.3,0.2-0.6,0.7-0.7,1c-0.1,0.3,0,0.4,0.3,0.2
	c0.3-0.2,0.6-0.6,0.7-1C34.5,11.7,34.4,11.6,34.1,11.8z M32.6,15.6c0.3-0.2,0.7-0.6,0.8-0.9c0.1-0.3,0-0.5-0.3-0.3
	c-0.3,0.2-0.7,0.6-0.8,0.9C32.1,15.6,32.3,15.8,32.6,15.6z M31.6,18.2c0.4-0.1,0.8-0.5,0.9-0.9c0.1-0.3-0.1-0.5-0.4-0.4
	c-0.4,0.1-0.8,0.5-0.9,0.9C31,18.2,31.2,18.3,31.6,18.2z M31.5,20c0.1-0.4-0.1-0.6-0.5-0.4c-0.4,0.1-0.8,0.5-1,0.9
	c-0.1,0.4,0.1,0.6,0.5,0.4C30.9,20.8,31.3,20.4,31.5,20z M29.9,22.4c-0.4,0.1-0.8,0.5-1,0.9c-0.1,0.3,0.1,0.5,0.5,0.4
	c0.4-0.1,0.8-0.5,1-0.8C30.6,22.5,30.4,22.3,29.9,22.4z M28.3,26c0.4-0.1,0.8-0.4,1-0.7c0.2-0.3,0-0.5-0.4-0.4
	c-0.4,0.1-0.8,0.4-1,0.7C27.8,25.9,28,26.1,28.3,26z M28.1,27.4c0.1-0.3,0-0.4-0.4-0.4c-0.4,0-0.8,0.3-1,0.5c-0.2,0.2,0,0.4,0.4,0.4
	C27.6,27.9,28,27.7,28.1,27.4z M26.1,29.7c0.4,0,0.8-0.1,1-0.4c0.1-0.2-0.1-0.4-0.5-0.4c-0.4,0-0.8,0.2-1,0.4
	C25.4,29.5,25.7,29.7,26.1,29.7z M25.6,30.6c-0.4-0.1-0.9,0-1,0.2c-0.1,0.2,0.1,0.4,0.6,0.5c0.4,0.1,0.9,0,1-0.2
	C26.2,30.9,26,30.6,25.6,30.6z M25.5,32.8c0.1-0.2-0.2-0.5-0.7-0.7c-0.4-0.1-0.9-0.1-0.9,0.1c-0.1,0.2,0.2,0.5,0.7,0.7
	C25,33.1,25.4,33.1,25.5,32.8z M24.5,35c0.5,0.2,0.8,0.1,0.8-0.1c0-0.3-0.4-0.7-0.8-0.9c-0.5-0.2-0.8-0.1-0.8,0.1
	C23.6,34.4,24,34.8,24.5,35z M25.6,37.6c0.4,0.2,0.6,0.1,0.4-0.3c-0.2-0.4-0.7-0.9-1.1-1.1c-0.5-0.2-0.7-0.2-0.5,0.2
	C24.6,36.8,25.2,37.4,25.6,37.6z M27.4,41.9c0.4,0.2,0.6-0.1,0.4-0.7c-0.2-0.6-0.8-1.2-1.2-1.5c-0.4-0.2-0.6,0-0.4,0.7
	C26.4,41,27,41.7,27.4,41.9z M28.3,44.6c-0.4-0.2-0.6,0.3-0.4,1c0,0.1,0.1,0.3,0.1,0.4h1.4C29.1,45.4,28.7,44.8,28.3,44.6z
	 M38.1,0.5c-0.1,0.3-0.4,0.9-0.5,1.3c-0.2,0.4-0.2,0.5,0,0.2c0.1-0.3,0.3-0.9,0.5-1.3C38.3,0.3,38.3,0.2,38.1,0.5z M37.1,3.8
	C36.9,4,36.7,4.6,36.6,5c-0.1,0.4,0,0.5,0.1,0.3C36.9,5,37.1,4.5,37.2,4C37.2,3.6,37.2,3.5,37.1,3.8z M36.5,7.1
	c-0.2,0.3-0.4,0.8-0.4,1.2c-0.1,0.4,0,0.5,0.2,0.3c0.2-0.2,0.4-0.7,0.5-1.1C36.8,7,36.6,6.8,36.5,7.1z M36,10.1
	c-0.2,0.2-0.5,0.7-0.6,1.1c-0.1,0.4,0.1,0.5,0.3,0.3c0.3-0.2,0.5-0.7,0.6-1.1C36.4,10,36.2,9.9,36,10.1z M34.8,14
	c-0.1,0.4,0.1,0.5,0.4,0.4c0.3-0.2,0.6-0.6,0.7-1c0.1-0.4-0.1-0.6-0.4-0.4C35.2,13.2,34.8,13.6,34.8,14z M34,16.8
	c-0.1,0.4,0.1,0.6,0.5,0.4c0.4-0.1,0.7-0.5,0.8-0.9c0.1-0.4-0.1-0.6-0.5-0.4C34.5,16,34.1,16.4,34,16.8z M34.5,19.2
	c0.1-0.4-0.1-0.6-0.5-0.5c-0.4,0.1-0.8,0.5-0.9,0.9c-0.1,0.4,0.1,0.6,0.5,0.5C34,20,34.4,19.6,34.5,19.2z M32.5,22.9
	c0.4-0.1,0.9-0.5,1-0.8c0.2-0.4-0.1-0.6-0.5-0.5c-0.4,0.1-0.8,0.5-1,0.9C31.9,22.8,32.1,23,32.5,22.9z M31.3,25.5
	c0.4-0.1,0.8-0.4,1-0.7c0.2-0.3,0-0.6-0.4-0.5c-0.4,0.1-0.8,0.4-1,0.7C30.7,25.3,30.9,25.5,31.3,25.5z M31.1,27.3
	c0.1-0.3-0.1-0.5-0.4-0.5c-0.4,0-0.8,0.3-1,0.6c-0.1,0.3,0.1,0.5,0.4,0.5C30.5,27.8,31,27.6,31.1,27.3z M30.1,29.6
	c0.1-0.3-0.1-0.6-0.5-0.6c-0.4,0-0.8,0.2-0.9,0.4s0.1,0.5,0.5,0.6S30,29.9,30.1,29.6z M29.4,31.9c0.1-0.3-0.2-0.6-0.6-0.7
	c-0.4-0.1-0.8,0.1-0.9,0.3c-0.1,0.3,0.2,0.6,0.6,0.7C28.9,32.3,29.3,32.2,29.4,31.9z M28.2,33.3c-0.4-0.2-0.9-0.1-0.9,0.2
	c-0.1,0.3,0.3,0.6,0.7,0.8c0.5,0.2,0.9,0.1,0.9-0.2C29,33.8,28.7,33.4,28.2,33.3z M28,36.8c0.5,0.2,0.8,0.2,0.8-0.2
	c0-0.3-0.4-0.8-0.9-1c-0.5-0.2-0.8-0.1-0.8,0.2C27.1,36.1,27.6,36.5,28,36.8z M29,39.7c0.4,0.3,0.6,0.2,0.5-0.2
	c-0.2-0.4-0.6-1-1.1-1.2c-0.5-0.3-0.7-0.2-0.5,0.2C28,38.8,28.6,39.4,29,39.7z M30.7,43.7c0.4,0.2,0.6,0,0.4-0.6
	c-0.2-0.5-0.8-1.2-1.2-1.5c-0.4-0.3-0.6-0.1-0.4,0.5C29.7,42.7,30.3,43.4,30.7,43.7z M38.1,1.7c-0.1,0.3-0.3,0.8-0.4,1.3
	c-0.1,0.4,0,0.6,0.2,0.4C38,3.1,38.1,2.5,38.2,2C38.2,1.6,38.2,1.4,38.1,1.7z M37.8,6.8c0.2-0.2,0.4-0.7,0.3-1.2
	c0-0.5-0.2-0.7-0.3-0.5c-0.2,0.2-0.3,0.8-0.3,1.3C37.4,6.9,37.6,7,37.8,6.8z M37.7,10.1C38,9.9,38.2,9.4,38.2,9
	c0-0.4-0.2-0.6-0.4-0.4c-0.2,0.2-0.4,0.7-0.4,1.1C37.3,10,37.5,10.2,37.7,10.1z M37.6,13.2c0.3-0.1,0.6-0.6,0.6-1
	c0-0.4-0.2-0.7-0.5-0.5c-0.3,0.1-0.5,0.6-0.6,1C37.1,13.2,37.3,13.4,37.6,13.2z M37.4,14.9c-0.3,0.1-0.7,0.5-0.7,0.9
	c-0.1,0.4,0.2,0.6,0.5,0.5c0.4-0.1,0.7-0.5,0.7-0.9C38,15.1,37.8,14.8,37.4,14.9z M36.6,19.4c0.4-0.1,0.8-0.4,0.9-0.8
	c0.1-0.4-0.1-0.7-0.5-0.6c-0.4,0.1-0.8,0.5-0.9,0.9C36,19.2,36.2,19.5,36.6,19.4z M36.5,21.5c0.2-0.4,0-0.6-0.4-0.6
	c-0.4,0.1-0.8,0.4-1,0.8c-0.2,0.4,0,0.6,0.4,0.6C35.8,22.2,36.3,21.9,36.5,21.5z M35.1,24.4c0.2-0.4,0-0.7-0.4-0.6
	c-0.4,0-0.8,0.4-1,0.7c-0.2,0.4,0,0.6,0.4,0.6C34.5,25.1,34.9,24.8,35.1,24.4z M34,27.3c0.1-0.4-0.1-0.7-0.4-0.7
	c-0.4,0-0.8,0.3-0.9,0.6c-0.1,0.3,0.1,0.6,0.5,0.6C33.5,27.9,33.9,27.6,34,27.3z M33.2,30.1c0.1-0.4-0.2-0.7-0.5-0.7
	c-0.4-0.1-0.8,0.2-0.9,0.5c-0.1,0.3,0.2,0.7,0.6,0.7C32.7,30.6,33.1,30.4,33.2,30.1z M32.7,32.8c0.1-0.4-0.2-0.7-0.7-0.9
	c-0.4-0.1-0.8,0.1-0.9,0.4c-0.1,0.3,0.2,0.7,0.7,0.8C32.2,33.3,32.6,33.2,32.7,32.8z M31.5,35.9c0.5,0.2,0.8,0.1,0.9-0.3
	c0-0.4-0.3-0.8-0.8-1c-0.4-0.2-0.8-0.1-0.9,0.3C30.7,35.2,31.1,35.6,31.5,35.9z M32.4,38.5c0-0.4-0.4-0.9-0.9-1.2
	c-0.5-0.2-0.8-0.1-0.8,0.2c0,0.4,0.5,0.9,0.9,1.2C32.1,39,32.4,38.9,32.4,38.5z M32.5,42c0.4,0.3,0.7,0.2,0.5-0.2
	c-0.1-0.5-0.6-1-1.1-1.3c-0.5-0.3-0.7-0.2-0.6,0.2C31.5,41.1,32,41.7,32.5,42z M34.1,45.6c0.4,0.3,0.6,0,0.4-0.5
	c-0.2-0.5-0.7-1.1-1.2-1.4c-0.4-0.3-0.6-0.1-0.4,0.4C33.1,44.7,33.6,45.4,34.1,45.6z M39,1.6c0.1-0.2,0.3-0.7,0.3-1.2
	c0-0.2,0-0.3,0-0.4H39c-0.1,0.3-0.2,0.7-0.3,1.1C38.7,1.6,38.8,1.8,39,1.6z M39.1,3.7c-0.2,0.2-0.3,0.7-0.2,1.2
	c0.1,0.5,0.2,0.7,0.4,0.5s0.3-0.6,0.2-1.1C39.4,3.8,39.2,3.5,39.1,3.7z M39.5,7.3c-0.2,0.1-0.4,0.6-0.3,1.1c0,0.4,0.3,0.7,0.5,0.6
	c0.3-0.1,0.4-0.6,0.3-1C39.9,7.5,39.7,7.2,39.5,7.3z M39.8,10.8c-0.3,0.1-0.5,0.5-0.5,1c0,0.4,0.3,0.7,0.6,0.6
	c0.3-0.1,0.5-0.5,0.5-1C40.4,11,40.1,10.7,39.8,10.8z M40,14.3c-0.3,0.1-0.6,0.5-0.6,0.9c0,0.4,0.2,0.7,0.6,0.7
	c0.4,0,0.7-0.4,0.7-0.9C40.6,14.5,40.4,14.2,40,14.3z M39.5,19c0.4,0,0.8-0.4,0.8-0.8c0.1-0.4-0.2-0.7-0.5-0.7
	c-0.4,0-0.7,0.4-0.8,0.8C38.9,18.7,39.1,19,39.5,19z M38,21.3c-0.2,0.4-0.1,0.7,0.3,0.7c0.4,0,0.8-0.4,1.1-0.8
	c0.2-0.4,0-0.7-0.4-0.6C38.6,20.6,38.2,20.9,38,21.3z M37.5,23.6c-0.4,0-0.8,0.3-1,0.7c-0.2,0.4,0,0.7,0.4,0.7
	c0.4,0,0.8-0.3,0.9-0.7C38.1,23.9,37.9,23.6,37.5,23.6z M36.9,27.5c0.1-0.4-0.1-0.8-0.5-0.8c-0.4,0-0.8,0.3-0.9,0.7
	c-0.1,0.4,0.1,0.7,0.5,0.8C36.4,28.2,36.8,27.9,36.9,27.5z M36.2,30.7c0.1-0.4-0.2-0.8-0.6-0.9c-0.4-0.1-0.8,0.2-0.8,0.6
	c-0.1,0.4,0.2,0.8,0.6,0.9C35.8,31.3,36.2,31.1,36.2,30.7z M35.2,32.9c-0.4-0.1-0.8,0.1-0.8,0.5c0,0.4,0.3,0.8,0.7,1
	c0.4,0.2,0.8-0.1,0.8-0.5C35.9,33.5,35.6,33,35.2,32.9z M35,37.5c0.5,0.2,0.8,0,0.8-0.4c0-0.4-0.4-0.9-0.8-1.1
	c-0.4-0.2-0.8,0-0.8,0.4C34.2,36.8,34.6,37.3,35,37.5z M35.2,40.8c0.5,0.3,0.8,0.1,0.8-0.3c0-0.4-0.4-1-0.9-1.2
	c-0.5-0.2-0.8-0.1-0.8,0.3C34.3,40,34.7,40.5,35.2,40.8z M35.9,44.3c0.5,0.3,0.7,0.2,0.6-0.2c-0.1-0.5-0.6-1.1-1-1.4
	c-0.5-0.3-0.8-0.1-0.6,0.3C35,43.5,35.5,44,35.9,44.3z M36.7,46c-0.3-0.2-0.5-0.2-0.5,0.1h0.6C36.7,46,36.7,46,36.7,46z M40.1,0.5
	c0.1-0.1,0.2-0.2,0.2-0.5h-0.5C39.9,0.4,40,0.6,40.1,0.5z M40.2,3.8c0.1,0.6,0.3,0.8,0.5,0.7c0.2-0.1,0.3-0.4,0.2-1
	c-0.1-0.6-0.4-1-0.6-0.9C40.2,2.8,40.1,3.3,40.2,3.8z M41.2,6.6c-0.2,0.1-0.3,0.5-0.2,1c0.1,0.5,0.4,0.8,0.6,0.8
	c0.3,0,0.4-0.5,0.2-1C41.7,6.9,41.4,6.5,41.2,6.6z M42,10.4c-0.3,0-0.4,0.4-0.4,0.9c0.1,0.5,0.4,0.8,0.7,0.8c0.3,0,0.5-0.4,0.4-0.9
	C42.6,10.8,42.3,10.4,42,10.4z M42,14.9c0,0.5,0.3,0.8,0.6,0.8c0.3,0,0.6-0.3,0.6-0.8c0-0.5-0.3-0.9-0.7-0.9
	C42.2,14.1,42,14.4,42,14.9z M42.4,19c0.4,0,0.7-0.2,0.8-0.7c0.1-0.4-0.2-0.8-0.6-0.8c-0.4,0-0.7,0.3-0.8,0.7
	C41.8,18.7,42,19,42.4,19z M41.1,22c0.4,0,0.8-0.3,1.1-0.7c0.2-0.3,0-0.7-0.3-0.7c-0.4,0-0.8,0.3-1,0.6C40.6,21.6,40.7,22,41.1,22z
	 M39.7,25.3c0.3,0.1,0.7-0.2,0.9-0.7c0.2-0.4,0-0.8-0.3-0.9c-0.3,0-0.8,0.3-0.9,0.7C39.2,24.9,39.3,25.2,39.7,25.3z M38.3,27.7
	c-0.1,0.4,0.1,0.8,0.5,0.9c0.4,0.1,0.7-0.2,0.8-0.7c0.1-0.4-0.1-0.9-0.5-0.9C38.8,27,38.4,27.3,38.3,27.7z M37.8,31.1
	c0,0.4,0.2,0.9,0.6,1c0.4,0.1,0.7-0.2,0.8-0.6c0-0.5-0.2-0.9-0.6-1C38.2,30.4,37.8,30.6,37.8,31.1z M38.4,35.6
	c0.4,0.2,0.7-0.1,0.7-0.6c0-0.5-0.3-1-0.7-1.1c-0.4-0.1-0.7,0.1-0.8,0.6C37.6,34.9,37.9,35.4,38.4,35.6z M38.5,39.1
	c0.4,0.2,0.8,0,0.8-0.5c0-0.5-0.4-1-0.8-1.2c-0.4-0.2-0.8,0-0.8,0.5C37.7,38.3,38.1,38.9,38.5,39.1z M38.8,42.7
	c0.5,0.2,0.8,0,0.7-0.5c0-0.5-0.5-1.1-0.9-1.3c-0.5-0.2-0.8,0-0.8,0.4C37.9,41.9,38.3,42.5,38.8,42.7z M39,44.7
	c-0.5-0.3-0.8-0.1-0.7,0.4c0.1,0.3,0.3,0.6,0.5,0.9H40C39.9,45.5,39.5,45,39,44.7z M41.6,0h-0.2c0,0,0.1,0.1,0.1,0.1
	C41.5,0.1,41.5,0.1,41.6,0z M42.4,4.4c0.2,0,0.3-0.3,0.1-0.9s-0.5-1.1-0.7-1.1c-0.2,0-0.3,0.5-0.1,1C41.9,4,42.2,4.4,42.4,4.4z
	 M43.6,8.4c0.3,0.1,0.4-0.3,0.2-0.8c-0.2-0.5-0.5-1-0.8-1.1c-0.2,0-0.3,0.4-0.2,0.9C43,7.9,43.4,8.4,43.6,8.4z M44.2,10.6
	c-0.3-0.1-0.4,0.3-0.3,0.8c0.1,0.5,0.5,1,0.8,1.1c0.3,0.1,0.5-0.2,0.3-0.8C44.9,11.2,44.5,10.7,44.2,10.6z M44.6,15.2
	c0.1,0.5,0.4,0.9,0.7,1c0.3,0.1,0.6-0.2,0.5-0.6c-0.1-0.5-0.4-1-0.7-1.1C44.8,14.4,44.6,14.7,44.6,15.2z M45.4,18.1
	c-0.4-0.1-0.7,0.2-0.7,0.6c-0.1,0.4,0.2,0.8,0.5,1c0.4,0.1,0.7-0.1,0.8-0.5C46,18.7,45.7,18.2,45.4,18.1z M43.8,22.6
	c0.3,0.1,0.8-0.1,1.1-0.5c0.2-0.3,0.1-0.8-0.3-0.9c-0.4-0.1-0.8,0.1-1,0.5C43.3,22.1,43.4,22.5,43.8,22.6z M42.9,24.3
	c-0.3-0.1-0.8,0.2-0.9,0.6c-0.2,0.4,0,0.9,0.3,1c0.3,0.1,0.7-0.2,0.9-0.6C43.4,24.9,43.3,24.4,42.9,24.3z M41.9,27.7
	c-0.3-0.1-0.7,0.2-0.8,0.6c-0.1,0.5,0.2,0.9,0.5,1c0.4,0.1,0.7-0.2,0.7-0.6C42.4,28.3,42.2,27.8,41.9,27.7z M41.4,33
	c0.4,0.1,0.7-0.2,0.7-0.6c0-0.5-0.3-1-0.6-1.1c-0.4-0.1-0.7,0.2-0.7,0.6C40.7,32.4,41,32.9,41.4,33z M41.4,35
	c-0.4-0.1-0.7,0.1-0.7,0.6c0,0.5,0.4,1,0.8,1.2c0.4,0.2,0.7-0.1,0.7-0.6C42.2,35.7,41.8,35.1,41.4,35z M41.9,40.6
	c0.4,0.2,0.7-0.1,0.7-0.6c-0.1-0.5-0.4-1-0.9-1.2c-0.4-0.2-0.7,0.1-0.7,0.6C41.1,39.8,41.5,40.4,41.9,40.6z M42.3,44.4
	c0.5,0.2,0.8-0.1,0.7-0.6c-0.1-0.5-0.5-1.1-0.9-1.2c-0.5-0.2-0.8,0.1-0.7,0.6C41.4,43.6,41.9,44.2,42.3,44.4z M43,0.6
	c0.2,0.1,0.3-0.1,0.3-0.6h-0.7C42.8,0.3,42.9,0.5,43,0.6z M43.6,3c-0.2-0.1-0.3,0.3-0.1,0.9C43.7,4.5,44,5,44.3,5.1
	c0.3,0.2,0.3,0,0.1-0.7C44.2,3.8,43.8,3.1,43.6,3z M45.9,8.7c-0.2-0.6-0.6-1.2-0.9-1.3c-0.3-0.2-0.3,0.2-0.1,0.7s0.6,1.1,0.9,1.3
	C46.1,9.5,46.2,9.2,45.9,8.7z M46.6,11.6c-0.3-0.2-0.4,0.1-0.3,0.7c0.2,0.5,0.5,1.1,0.9,1.3c0.3,0.2,0.5,0,0.3-0.6
	S46.9,11.8,46.6,11.6z M47.7,15.7c-0.3-0.2-0.5,0.1-0.5,0.6c0.1,0.5,0.4,1,0.8,1.3c0.4,0.2,0.6,0,0.5-0.5
	C48.4,16.5,48.1,15.9,47.7,15.7z M48.7,20.6c0.1-0.4-0.2-1-0.6-1.2c-0.4-0.2-0.7,0-0.7,0.4c-0.1,0.4,0.1,0.9,0.5,1.1
	C48.2,21.2,48.6,21,48.7,20.6z M47.5,23.5c0.3-0.3,0.2-0.8-0.2-1c-0.3-0.2-0.8-0.1-1,0.3c-0.3,0.4-0.2,0.8,0.1,1
	C46.7,24,47.2,23.9,47.5,23.5z M45.7,26.5c0.2-0.4,0.1-0.9-0.3-1.1c-0.3-0.2-0.7,0-0.9,0.5c-0.2,0.4,0,0.9,0.3,1.1
	C45.2,27.1,45.6,26.9,45.7,26.5z M44.5,28.7c-0.3-0.2-0.7,0.1-0.7,0.6c-0.1,0.5,0.2,1,0.5,1.1c0.3,0.2,0.6-0.1,0.7-0.6
	C45,29.4,44.8,28.9,44.5,28.7z M44.3,34.1c0.4,0.1,0.6-0.1,0.6-0.6c0-0.5-0.3-1-0.7-1.1c-0.4-0.1-0.6,0.1-0.6,0.6
	C43.6,33.4,43.9,33.9,44.3,34.1z M44.7,37.9c0.4,0.1,0.7-0.2,0.6-0.7c-0.1-0.5-0.4-1-0.8-1.2c-0.4-0.1-0.7,0.1-0.6,0.6
	C43.9,37.2,44.3,37.8,44.7,37.9z M45.2,41.8c0.4,0.1,0.7-0.2,0.6-0.7c-0.1-0.5-0.5-1-0.9-1.2c-0.4-0.1-0.7,0.1-0.6,0.7
	C44.4,41.1,44.8,41.7,45.2,41.8z M45.8,45.7c0.4,0.1,0.8-0.2,0.7-0.7c-0.1-0.5-0.5-1-0.9-1.1c-0.4-0.1-0.7,0.2-0.7,0.7
	C44.9,45,45.3,45.6,45.8,45.7z M44.9,0.3c-0.3-0.3-0.5-0.1-0.5,0.4c0,0.5,0.3,1.2,0.6,1.5c0.4,0.4,0.6,0.2,0.5-0.4
	C45.5,1.4,45.2,0.7,44.9,0.3z M45.6,4.7c-0.3-0.3-0.4,0-0.1,0.6c0.2,0.6,0.6,1.2,0.9,1.5c0.3,0.4,0.5,0.3,0.3-0.4
	C46.4,5.8,46,5.1,45.6,4.7z M47.2,9.7c0.2,0.6,0.7,1.3,1,1.6c0.3,0.3,0.5,0.1,0.2-0.4c-0.2-0.6-0.7-1.3-1.1-1.7
	C47,8.9,46.9,9.1,47.2,9.7z M48.8,14c0.1,0.2,0.2,0.5,0.4,0.8v-1.1c0,0-0.1-0.1-0.1-0.1C48.7,13.3,48.6,13.5,48.8,14z M49.2,24.3
	c-0.1,0-0.3,0.1-0.4,0.2c-0.3,0.3-0.3,0.8,0,1.1c0.1,0.1,0.2,0.2,0.3,0.2V24.3z M48.3,28.3c0.2-0.4,0-0.9-0.4-1.2
	c-0.3-0.3-0.7-0.2-0.9,0.2c-0.2,0.4,0,0.9,0.3,1.1C47.7,28.8,48.1,28.7,48.3,28.3z M46.8,31.7c0.4,0.2,0.7,0.1,0.8-0.4
	c0-0.4-0.2-0.9-0.6-1.2c-0.3-0.2-0.6,0-0.7,0.4C46.2,31,46.5,31.5,46.8,31.7z M47,35.2c0.4,0.2,0.7,0,0.6-0.5
	c-0.1-0.5-0.4-1-0.8-1.2c-0.3-0.2-0.6,0.1-0.6,0.5C46.4,34.6,46.7,35.1,47,35.2z M47.7,38.9c0.4,0.1,0.7-0.1,0.6-0.6
	c-0.1-0.5-0.5-1-0.9-1.1c-0.4-0.1-0.6,0.1-0.5,0.6C46.9,38.3,47.3,38.8,47.7,38.9z M48.5,42.7c0.4,0.1,0.7-0.2,0.6-0.7
	c-0.1-0.5-0.5-1-1-1.1c-0.4-0.1-0.6,0.2-0.6,0.7C47.7,42.1,48.1,42.6,48.5,42.7z M49.2,44.8c-0.1-0.1-0.2-0.1-0.3-0.1
	c-0.4-0.1-0.7,0.3-0.6,0.7c0,0.2,0.2,0.5,0.3,0.6h0.6V44.8z M48.3,0.9c0.3,0.2,0.6,0.2,0.9,0V0h-1.3C47.8,0.4,48,0.7,48.3,0.9z
	 M47.9,4.7c0.4,0.3,0.7,0,0.6-0.5c0-0.5-0.3-1.1-0.8-1.4c-0.4-0.3-0.8-0.1-0.7,0.4C47.1,3.7,47.5,4.4,47.9,4.7z M48.5,7.1
	c-0.4-0.3-0.6,0-0.3,0.6c0.2,0.6,0.6,1.1,1,1.4V7.8C49,7.5,48.7,7.3,48.5,7.1z"/>
</svg>
